<svg xmlns="http://www.w3.org/2000/svg"><defs><font id="UnivaNova-Thin" horiz-adv-x="1049" vert-adv-y="2048"><font-face font-family="Univa Nova Thin" font-weight="100" units-per-em="2048" panose-1="0 0 2 0 0 0 0 0 0 0" ascent="1638" descent="-410" x-height="1059" cap-height="1469" bbox="-131 -499 2455 2154" underline-thickness="50" underline-position="-150" unicode-range="U+0020-F8FF"/><glyph glyph-name="f_f.liga" unicode="ff" horiz-adv-x="1493" vert-adv-y="2275" d="M398 1001V0h-66v1001H110v58h222v209q0 265 259 284h26q34 0 54-5v-55q-22 6-50 6-11 0-29-2-103-9-148.5-65.5T398 1270v-211h646v209q0 265 259 284h25q34 0 55-5l-1-55q-20 6-49 6-10 0-30-2-103-9-148.5-65.5T1109 1270v-211h267v-58h-267V0h-65v1001H398z"/><glyph glyph-name="f_f_t.liga" unicode="fft" horiz-adv-x="2135" vert-adv-y="2275" d="M1908-2q-96 0-138 55t-42 158v790h-619V0h-65v1001H398V0h-66v1001H110v58h222v209q0 265 259 284h26q34 0 54-5v-55q-22 6-50 6-11 0-29-2-103-9-148.5-65.5T398 1270v-211h646v209q0 265 259 284h25q34 0 55-5l-1-55q-20 6-49 6-10 0-30-2-103-9-148.5-65.5T1109 1270v-211h619v461h66v-461h230v-58h-230V229q0-86 29-130t114-44q30 0 88 2V1z"/><glyph glyph-name="f_t.liga" unicode="ft" horiz-adv-x="1450" vert-adv-y="2275" d="M1223-2q-97 0-138.5 55T1043 211v790H398V0h-66v1001H110v58h222v209q0 265 259 284h26q34 0 54-5v-55q-22 6-50 6-11 0-29-2-103-9-148.5-65.5T398 1270v-211h645v461h65v-461h231v-58h-231V229q0-86 29.5-130T1252 55q28 0 88 2V1z"/><glyph glyph-name=".notdef" horiz-adv-x="899" vert-adv-y="2275" d="M799 9H100v1144h699V9zM146 1121l303-506 304 506H146zm325-540L766 85v990zm-337 491V88l294 493zm316-525L148 43h605z"/><glyph glyph-name=".null" horiz-adv-x="0" vert-adv-y="2275"/><glyph glyph-name="nonmarkingreturn" horiz-adv-x="682"/><glyph glyph-name="space" horiz-adv-x="541" vert-adv-y="2275"/><glyph glyph-name="exclam" unicode="!" horiz-adv-x="460" vert-adv-y="2275" d="M269 1469 253 268h-49l-17 1201h82zM229-17q-30 0-49.5 19T160 51q0 31 19 50.5t50 19.5 50.5-19.5T299 51q0-29-20.5-48.5T229-17z"/><glyph glyph-name="quotedbl" unicode="&quot;" horiz-adv-x="779" vert-adv-y="2275" d="M255 1469V897h-68v572h68zm337 0V897h-68v572h68z"/><glyph glyph-name="numbersign" unicode="#" horiz-adv-x="1249" vert-adv-y="2275" d="M395 465 299 0h-63l96 465H98l12 60h237l84 412H194l12 60h240l97 472h64l-99-472h342l98 472h63l-99-472h240l-13-60H899l-84-412h241l-13-60H800L703 0h-62l96 465H395zm441 472H494l-84-412h341z"/><glyph glyph-name="dollar" unicode="$" horiz-adv-x="1183" vert-adv-y="2275" d="M645-29v-232h-55v231h-16Q151-18 85 375h69q28-168 136.5-253T573 32l17-1v691l-42 12q-85 23-150.5 53T273 863t-91 113-32 152q0 68 29 142 30 75 94.5 126.5t139 74.5 161.5 28h16v233h55v-233h15q188-11 297-115.5t135-291.5h-70q-14 87-55 159-92 166-304 186l-18 2V777l31-8q230-63 327-160 95-95 95-243 0-75-24-136-26-64-65-110-42-50-128-93-86-44-221-55zm-76 827 21-6v646l-18-1q-72-4-132-21.5t-111.5-52T248 1270t-29-138q0-138 92-214 82-69 258-120zm97-98-21 6V32l18 2q71 6 133.5 27t116 58 84.5 98 31 139q0 143-93 221-86 72-269 123z"/><glyph glyph-name="percent" unicode="%" horiz-adv-x="1921" vert-adv-y="2275" d="M458 563q-69 0-123 28t-86.5 72.5T195 770t-29 123-8 129 8 129 29 123 54 107 86.5 73 122.5 28 122.5-28 86.5-73 54-107 29-123.5 8-128.5-8-128-29-123-53.5-107-86.5-73-123-28zm936 906L591 0h-65l804 1469h64zM458 618q60 0 105.5 29.5t69.5 72 39 101 19 105 4 96.5q0 41-3 79t-11 87-25 89-42 75-65 54.5-91 19.5q-50 0-90-19.5t-65-54.5-42-75-25.5-88.5-11.5-87-3-79.5q0-40 3-78.5t11.5-87.5 25.5-89 42-75 65-54.5 90-19.5zM1463-12q-70 0-124 28t-86.5 72.5T1199 195t-29 123-8 129 8 129 29 123 53.5 106.5T1339 878t124 28q69 0 122.5-28t86-73 54-106.5 29.5-123 8-128.5-8-128.5-29.5-123.5-54-106.5-86-72.5T1463-12zm0 55q51 0 90.5 19.5T1618 117t42 75 25 89 11 87 3 79-3 79-11 87-25 88.5-42 74.5-64.5 54.5T1463 850t-91-19.5-65-54.5-42-74.5-25-88.5-11-87-3-79 3-79 11-87 25-89 42-75 65-54.5 91-19.5z"/><glyph glyph-name="ampersand" unicode="&amp;" horiz-adv-x="1351" vert-adv-y="2275" d="M566-37q-74 0-144 15Q283 8 200 107t-83 241q0 139 87.5 240T435 755l23 11-18 17q-197 184-197 362 0 154 104 253t258 99q220 0 323-168 42-67 42-157 0-81-30.5-147t-87-115-118-83T592 762l-25-10 496-465 11 16q105 162 100 385l72 5v-14q0-239-126-427l-8-11 235-220-96-3-177 168-12-12Q967 69 839 16T566-37zm-53 839 8-7 10 4q120 52 153 70 88 45 140 98 72 73 72 200 0 125-82.5 196.5T607 1435q-66 0-136-29-66-26-113-95-41-62-41-155 0-108 49.5-186T513 802zm50-778q127 0 246.5 51.5T1012 221l11 12-519 490-10-4q-64-29-113-60.5T286.5 583 216 479.5 191 350q0-83 29.5-147T302 100.5 420 43t143-19z"/><glyph glyph-name="quotesingle" unicode="'" horiz-adv-x="442" vert-adv-y="2275" d="M255 1469V897h-68v572h68z"/><glyph glyph-name="parenleft" unicode="(" horiz-adv-x="577" vert-adv-y="2275" d="M494-351h-63Q310-149 248.5 100T187 602q0 252 61.5 502T431 1554h63q-237-422-237-952 0-531 237-953z"/><glyph glyph-name="parenright" unicode=")" horiz-adv-x="577" vert-adv-y="2275" d="M146-351H83Q320 71 320 602q0 530-237 952h63q121-200 182.5-450T390 602q0-253-61.5-502T146-351z"/><glyph glyph-name="asterisk" unicode="*" horiz-adv-x="772" vert-adv-y="2275" d="m432 1158 169-232-49-35-167 234-165-234-49 38 169 231-271 87 19 57 269-91-2 288h62l-2-290 270 91 19-57z"/><glyph glyph-name="plus" unicode="+" horiz-adv-x="1186" vert-adv-y="2275" d="M626 483V0h-64v483H71v65h491v485h64V548h490v-65H626z"/><glyph glyph-name="comma" unicode="," horiz-adv-x="376" vert-adv-y="2275" d="M253 119 123-208H69l97 327h87z"/><glyph glyph-name="hyphen" unicode="-" horiz-adv-x="785" vert-adv-y="2275" d="M694 546v-59H91v59h603z"/><glyph glyph-name="period" unicode="." horiz-adv-x="389" vert-adv-y="2275" d="M194-17q-30 0-49.5 19T125 51q0 31 19 50.5t50 19.5q30 0 50-20t20-50q0-29-20.5-48.5T194-17z"/><glyph glyph-name="slash" unicode="/" horiz-adv-x="757" vert-adv-y="2275" d="M711 1469 119 0H46l592 1469h73z"/><glyph glyph-name="zero" unicode="0" horiz-adv-x="1171" vert-adv-y="2275" d="M586-32Q444-32 331.5 69t-174 275.5T96 735t61.5 390.5 174 275T586 1501t254.5-100.5 174-275T1076 735t-61.5-391-174-275.5T586-32zm0 50q131 6 232 103t155 257.5 54 356.5-54 356.5-155.5 257T586 1451q-130-6-231.5-103T199 1090.5 145 735t54-355.5 155-258T586 18z"/><glyph glyph-name="one" unicode="1" horiz-adv-x="1184" vert-adv-y="2275" d="M1028 64V0H233v64h362v1333H233v72h432V64h363z"/><glyph glyph-name="two" unicode="2" horiz-adv-x="1185" vert-adv-y="2275" d="M1058 66V0H116v67l595 541q236 213 236 440 0 179-99 285t-276 106q-153 0-246-79.5T208 1130h-73q26 177 141 274t296 97q145 0 258.5-64.5T988 1245q33-96 33-191 0-143-72.5-265T750 554L205 66h853z"/><glyph glyph-name="three" unicode="3" horiz-adv-x="1185" vert-adv-y="2275" d="M593-32q-73 0-140 14.5T325.5 27t-108 80T144 223q-27 67-30 144h74q5-147 108-240 107-97 297-97 189 0 295 97 109 98 109 257 0 89-33 156.5T873.5 648t-128 60T593 728h-96v58h96q172 0 268 92 98 92 98 240 0 81-29.5 144T849 1363t-116 57-140 19q-155 0-258-76.5T226 1135h-70q3 64 28 128 32 81 97 136t143.5 78.5T593 1501q74 0 156-21 126-33 202.5-132t76.5-230q0-113-54.5-202.5T820 778l-35-17 36-14q114-44 182-142t68-221q0-101-38-181.5t-104.5-131-152-77T593-32z"/><glyph glyph-name="four" unicode="4" horiz-adv-x="1186" vert-adv-y="2275" d="M895 389V0h-69v389H62v76l751 1004h82V453h212v-64H895zm-69 952h-30L132 453h694v888z"/><glyph glyph-name="five" unicode="5" horiz-adv-x="1183" vert-adv-y="2275" d="M593-32Q400-32 274 73.5T121 367h71q32-160 135-248.5T593 30q92 0 167.5 35.5t125 96 76.5 140T989 470q0 183-108.5 294.5T591 876q-103 0-187-45-85-45-128-100-37-46-54-83h-61l64 821h774v-66H297l-50-635 33 41q38 46 127 88 86 41 196 41 142 0 257-72.5T1024 664q39-98 39-194 0-135-59.5-250t-168-183.5T593-32z"/><glyph glyph-name="six" unicode="6" horiz-adv-x="1185" vert-adv-y="2275" d="M1100 450q0-206-141.5-345.5T607-35q-61 0-120 15-75 19-134 55-54 33-110 100-109 136-109 353 0 142 42.5 282.5T295 1035t169 231 206 204l90 5q-160-139-298-311-147-184-214-374l-30-85q45 105 159 168t256 63q133 0 241-65.5T1041 694t59-244zM610 27q188 0 309.5 120.5T1034 455q-5 179-122.5 299.5T618 875q-181 0-296.5-117.5T206 458q0-185 110.5-308T610 27z"/><glyph glyph-name="seven" unicode="7" horiz-adv-x="1185" vert-adv-y="2275" d="M995 1403H96v66h985v-68q-256-325-390-653.5T503 0h-77q57 395 189 731.5T975 1376z"/><glyph glyph-name="eight" unicode="8" horiz-adv-x="1185" vert-adv-y="2275" d="M593-32q-72 0-139.5 14.5T325.5 27t-108 80T144 223q-30 77-30 161 0 123 68 221t182 142l36 14-35 17q-99 48-154 138t-55 202q0 72 28 145 47 119 158 178.5t251 59.5q74 0 156-21 126-33 203-132t77-230q0-112-55-202T820 778l-35-17 36-14q114-44 182-142t68-221q0-101-38-181.5t-104.5-131-152-77T593-32zm0 818q172 0 269 92 98 94 98 240 0 107-52 181.5t-133 107-182 32.5q-75 0-140-19t-116.5-57-81-101-29.5-144q0-160 103.5-246T593 786zm0-756q189 0 296 97 108 97 108 257 0 89-33 156.5T874 648t-128 60-153 20-153-19.5T311.5 649 221 541t-33-157q0-159 108-257 107-97 297-97z"/><glyph glyph-name="nine" unicode="9" horiz-adv-x="1185" vert-adv-y="2275" d="M87 999q0 206 141.5 345.5T580 1484q62 0 120-15 75-19 134-55 54-33 110-100 109-136 109-353 0-142-42.5-282.5T892 414 723 183 517-21l-90-5q160 139 298 311 147 184 214 374l30 85q-45-105-159-168t-256-63q-133 0-241 65.5T146 755 87 999zm490 423q-188 0-309.5-120.5T153 994q5-179 122.5-299.5T569 574q181 0 296.5 117.5T981 991q0 185-110.5 308T577 1422z"/><glyph glyph-name="colon" unicode=":" horiz-adv-x="389" vert-adv-y="2275" d="M194 912q-30 0-49.5 19T125 980q0 31 19 50.5t50 19.5q30 0 50-20t20-50q0-29-20.5-48.5T194 912zm0-929q-30 0-49.5 19T125 51q0 31 19 50.5t50 19.5q30 0 50-20t20-50q0-29-20.5-48.5T194-17z"/><glyph glyph-name="semicolon" unicode=";" horiz-adv-x="381" vert-adv-y="2275" d="M189 912q-30 0-49.5 19T120 980q0 31 19 50.5t50 19.5q30 0 49.5-20t19.5-50q0-29-20-48.5T189 912zm64-793L123-208H69l97 327h87z"/><glyph glyph-name="less" unicode="&lt;" horiz-adv-x="1185" vert-adv-y="2275" d="m178 517 895-367V79L112 481v71l961 403v-71z"/><glyph glyph-name="equal" unicode="=" horiz-adv-x="1186" vert-adv-y="2275" d="M1116 760v-66H71v66h1045zm0-423v-66H71v66h1045z"/><glyph glyph-name="greater" unicode="&gt;" horiz-adv-x="1185" vert-adv-y="2275" d="M1073 552v-71L112 79v71l895 367-895 367v71z"/><glyph glyph-name="question" unicode="?" horiz-adv-x="1055" vert-adv-y="2275" d="M530 394V254h-66v140q0 96 60 183 28 39 63 75 37 36 74 71 39 37 61 59.5t53.5 62 48.5 74 30 82 13 98.5q0 159-95 249.5T520 1439q-162 0-258.5-102.5T165 1071q0-22 4-68H95q-4 48-4 72 0 187 121.5 306.5T520 1501q70 0 149-21 158-43 233-194 39-78 39-181 0-112-46.5-198.5T755 732q-13-12-40.5-37.5t-48-45.5-38.5-39q-68-72-88-142-10-36-10-74zM501-17q-31 0-50 18.5T432 51q0 32 18.5 51t50.5 19q31 0 50.5-20T571 51q0-29-20.5-48.5T501-17z"/><glyph glyph-name="at" unicode="@" horiz-adv-x="1701" vert-adv-y="2275" d="M861-258q-342 0-544.5 208.5T114 506q0 155 53 302 86 231 279 358.5T889 1294q143 0 267.5-40t226.5-129 155-219q49-122 49-259 0-92-23-180.5T1487.5 299 1358 180q-80-40-147-40-62 0-102 33.5t-54 94.5l-9 40-21-35q-39-63-105-98t-141-35q-135 0-206.5 90T501 462q0 83 22.5 159.5T588 760t109.5 99T848 896q79 0 141.5-37t88.5-106l21-53 24 122h66l-80-404q-7-32-7-71 0-62 30.5-104.5T1226 200q74 0 142 44 56 36 93 109t50.5 143.5T1525 637q0 142-48 257t-133 189.5-201.5 114.5-253.5 40q-232 0-407-117T228 787q-48-134-48-281 0-324 181-517t500-193q177 0 315 66 136 65 209 154h66q-103-132-259.5-203T861-258zm-63 451q62 0 123 41 70 46 107.5 145.5T1066 572q0 53-10.5 98t-34 84.5-66 62.5T854 840q-61 0-110-23t-81-60.5-54-87-31-101-9-104.5q0-148 63-209 63-62 166-62z"/><glyph glyph-name="A" unicode="A" horiz-adv-x="1546" vert-adv-y="2275" d="M362 425 186 0h-76l618 1469h91L1436 0h-79l-176 425H362zm790 66-381 916-381-916h762z"/><glyph glyph-name="B" unicode="B" horiz-adv-x="1286" vert-adv-y="2275" d="M677 0H110v1469h559q239 0 355-102 115-101 115-277 0-80-33-153t-93-117q-57-42-106-57l-54-17 55-15q121-33 194.5-124.5T1176 390q0-86-27-153.5T1076.5 125t-110-72.5-136-40.5T677 0zm0 1403H179V779h498q65 0 119.5 8T903 816t87.5 55 57 90 21.5 129q0 89-32 152.5t-89 97-123 48.5-148 15zm13-690H179V66h509q65 0 122 9t113 31.5 95.5 58 64 93.5 24.5 132q0 91-36 156.5T973 647t-131.5 50.5T690 713z"/><glyph glyph-name="C" unicode="C" horiz-adv-x="1613" vert-adv-y="2275" d="M825-32q-133 0-255.5 43.5T352 140q-105 96-157 209t-68 213q-17 97-17 173 0 116 34 246 33 130 114 243.5T449 1400q180 101 376 101 251 0 434-138t244-379h-73q-54 211-219.5 333T825 1439q-147 0-269.5-56t-203-152T228 1007t-44-272 44-272 124.5-224.5T555 86t270-56q220 0 385.5 122T1430 485h73q-61-241-244-379T825-32z"/><glyph glyph-name="D" unicode="D" horiz-adv-x="1453" vert-adv-y="2275" d="M538 0H110v1469h428q124 0 236-24.5t212.5-74.5 179-136 123.5-201q54-137 54-298 0-162-54-299-45-115-123.5-201t-179-136T774 24.5 538 0zm-9 1403H179V66h350q360 0 550 177 190 178 190 492 0 313-190 491-190 177-550 177z"/><glyph glyph-name="E" unicode="E" horiz-adv-x="1161" vert-adv-y="2275" d="M1051 66V0H110v1469h941v-66H179V779h734v-66H179V66h872z"/><glyph glyph-name="F" unicode="F" horiz-adv-x="1161" vert-adv-y="2275" d="M179 713V0h-69v1469h941v-66H179V779h734v-66H179z"/><glyph glyph-name="G" unicode="G" horiz-adv-x="1613" vert-adv-y="2275" d="M825-32q-133 0-255.5 43.5T352 140q-103 93-157 209-52 113-68 213-17 97-17 173 0 116 34 246 33 130 114 243.5T449 1400q180 101 376 101 247 0 427.5-127.5T1496 1013h-73q-59 204-220.5 315T825 1439q-147 0-269.5-56t-203-152T228 1007t-44-272 44-272 124.5-224.5T555 86t270-56q126 0 239 46 182 73 280 234.5t98 364.5v17H844v66h659V0h-61v394l-31-67q-81-174-235.5-266.5T825-32z"/><glyph glyph-name="H" unicode="H" horiz-adv-x="1344" vert-adv-y="2275" d="M179 713V0h-69v1469h69V779h986v690h69V0h-69v713H179z"/><glyph glyph-name="I" unicode="I" horiz-adv-x="625" vert-adv-y="2275" d="M515 59V0H110v59h168v1351H110v59h405v-59H347V59h168z"/><glyph glyph-name="J" unicode="J" horiz-adv-x="1344" vert-adv-y="2275" d="M671-32q-137 0-243 44T254.5 136.5 151 326t-41 244h70q2-114 33.5-211t91-171T458 72t213-42q121 0 216 43.5T1042 193t91 176 31 217v883h70V606q0-142-34-257t-102-201T921.5 15 671-32z"/><glyph glyph-name="K" unicode="K" horiz-adv-x="1303" vert-adv-y="2275" d="M179 542V0h-69v1469h69V643l913 826h101L509 844 1179 0h-89L460 798z"/><glyph glyph-name="L" unicode="L" horiz-adv-x="1161" vert-adv-y="2275" d="M1051 66V0H110v1469h69V66h872z"/><glyph glyph-name="M" unicode="M" horiz-adv-x="1516" vert-adv-y="2275" d="M179 1350V0h-69v1469h65l583-751 582 751h66V0h-70v1350L754 601q-2 7-146 194.5T322 1166z"/><glyph glyph-name="N" unicode="N" horiz-adv-x="1344" vert-adv-y="2275" d="M179 1377V0h-69v1469h88L1165 90v1379h69V0h-88z"/><glyph glyph-name="O" unicode="O" horiz-adv-x="1697" vert-adv-y="2275" d="M848-32q-161 0-299 59T315 188 164.5 432 110 735q0 216 93 390.5t262 275T848 1501q215 0 384.5-100.5t262-275T1587 735q0-162-54.5-303.5T1382 188 1147.5 27 848-32zm0 62q148 0 273.5 55T1332 235t133 224.5 48 275.5q0 196-81.5 355.5t-234.5 254-349 94.5-348.5-94.5-234-254.5T184 735t81-355 234-255 349-95z"/><glyph glyph-name="P" unicode="P" horiz-adv-x="1249" vert-adv-y="2275" d="M179 713V0h-69v1469h559q239 0 355-102 115-101 115-277 0-174-115-275-116-102-355-102H179zm498 690H179V779h498q392 0 392 312 0 72-21.5 127t-57.5 89.5-88 56.5-106.5 30.5T677 1403z"/><glyph glyph-name="Q" unicode="Q" horiz-adv-x="1697" vert-adv-y="2275" d="m1251 80 262-217-48-49-277 231-9-5q-159-72-331-72-161 0-299 59T315 188 164.5 432 110 735t54.5 302.5T315 1281t234 161 299 59 299.5-59 234.5-161 150.5-243.5T1587 735q0-196-82-366.5T1269 93zM848 30q148 0 273.5 55T1332 235t133 224.5 48 275.5q0 196-81.5 355.5t-234.5 254-349 94.5-348.5-94.5-234-254.5T184 735t81-355 234-255 349-95z"/><glyph glyph-name="R" unicode="R" horiz-adv-x="1249" vert-adv-y="2275" d="M179 713V0h-69v1469h559q239 0 355-102 115-101 115-277t-107-268-291-106l-26-2L1119 0h-88L640 713H179zm498 690H179V779h498q392 0 392 312 0 72-21.5 127t-57.5 89.5-88 56.5-106.5 30.5T677 1403z"/><glyph glyph-name="S" unicode="S" horiz-adv-x="1283" vert-adv-y="2275" d="M641-30q-95 0-188 26T291 73Q139 186 112 379h79q22-139 131-235Q441 37 641 37q155 0 262 54 87 43 138.5 113t51.5 163q0 118-81 199-51 51-193 92-65 18-209 49-159 33-207 47-119 34-184 88-44 36-78 97-31 57-31 157 0 78 32 144.5t85.5 112.5 122.5 78.5 143 47.5 148 15q96 0 189-25.5t162-76.5q75-56 120.5-134.5T1171 1086h-79q-22 137-131 235-121 107-320 107-154 0-261-54-87-43-138.5-113T190 1098q0-118 81-199 51-51 193-92 65-18 209-49 159-33 207-47 119-34 184-88 44-36 78-97 31-57 31-157 0-78-32-145t-85.5-112.5-123-78.5T789-15 641-30z"/><glyph glyph-name="T" unicode="T" horiz-adv-x="1288" vert-adv-y="2275" d="M678 1403V0h-69v1403H110v66h1068v-66H678z"/><glyph glyph-name="U" unicode="U" horiz-adv-x="1345" vert-adv-y="2275" d="M672-32q-142 0-250.5 47t-176 133T144 349.5 110 606v863h70V586q0-117 30.5-216.5t90-176 155-120T672 30t216 43.5T1043 193t91 176 31 217v883h70V606q0-142-34-257t-102-201T922.5 15 672-32z"/><glyph glyph-name="V" unicode="V" horiz-adv-x="1504" vert-adv-y="2275" d="M1394 1469 798 0h-91L110 1469h79L755 64l564 1405h75z"/><glyph glyph-name="W" unicode="W" horiz-adv-x="2245" vert-adv-y="2275" d="M2135 1469 1660-2h-93l-444 1415L677 0h-94L110 1469h80L630 55l446 1414h97L1617 53l442 1416h76z"/><glyph glyph-name="X" unicode="X" horiz-adv-x="1471" vert-adv-y="2275" d="M737 694 202 0h-92l584 745-583 724h91l535-672 536 672h87L778 745 1361 0h-88z"/><glyph glyph-name="Y" unicode="Y" horiz-adv-x="1470" vert-adv-y="2275" d="M767 733V0h-69v739l-588 730h92l534-672 536 672h88z"/><glyph glyph-name="Z" unicode="Z" horiz-adv-x="1332" vert-adv-y="2275" d="M1222 66V0H110v64l1022 1339H119v66h1094v-64L192 66h1030z"/><glyph glyph-name="bracketleft" unicode="[" horiz-adv-x="571" vert-adv-y="2275" d="M526-291v-60H160v1905h366v-60H226V-291h300z"/><glyph glyph-name="backslash" unicode="\" horiz-adv-x="757" vert-adv-y="2275" d="M119 1469 711 0h-73L46 1469h73z"/><glyph glyph-name="bracketright" unicode="]" horiz-adv-x="571" vert-adv-y="2275" d="M411 1554V-351H46v60h300v1785H46v60h365z"/><glyph glyph-name="asciicircum" unicode="^" horiz-adv-x="1168" vert-adv-y="2275" d="M584 1403 221 499h-71l399 970h70l400-970h-71z"/><glyph glyph-name="underscore" unicode="_" horiz-adv-x="1016" vert-adv-y="2275" d="M1016-245v-60H0v60h1016z"/><glyph glyph-name="grave" unicode="`" horiz-adv-x="671" vert-adv-y="2275" d="m311 1653 129-326h-59l-146 326h76z"/><glyph glyph-name="a" unicode="a" horiz-adv-x="1085" vert-adv-y="2275" d="M486-25q-268 0-347 166-29 59-29 137 0 112 59 185.5T337 564q42 10 101 15 4 0 104 7 114 9 352 23l15 1v67q0 166-91.5 246T560 1003q-163 0-254-75.5T210 693l-65-1q4 183 114.5 275t300.5 92q194 0 304.5-96.5T975 675V0h-66v201l-30-45Q758-25 486-25zm0 55q129 0 222 46 96 48 148.5 132T909 400v158l-17-1-245-17q-88-5-164-12-117-11-165-31-140-63-140-219 0-69 26-119t71.5-77T373 42.5 486 30z"/><glyph glyph-name="b" unicode="b" horiz-adv-x="1220" vert-adv-y="2275" d="M609-25q-123 0-230 56T206 189l-30 47V0h-66v1469h66V797l30 47q66 102 173 158.5t230 56.5q163 0 287-92t179-250q35-99 35-200 0-102-35-201-55-158-179-249.5T609-25zm0 57q115 0 219 62 105 62 160 178t55 245q0 128-55.5 244.5T828 940q-103 61-219 61t-219-61q-104-61-159-177.5T176 517q0-130 54.5-246T390 94q105-62 219-62z"/><glyph glyph-name="c" unicode="c" horiz-adv-x="1200" vert-adv-y="2275" d="M611-24q-163 0-286.5 91.5T145 317q-35 99-35 200t35 200q56 158 179.5 250t286.5 92q176 0 303-104.5T1090 677h-69q-50 181-191 263-103 61-219 61t-219-61q-104-61-159-177.5T178 517t55-245.5T392 94q103-61 219-61t219 61q141 82 191 263h69q-49-173-176-277T611-24z"/><glyph glyph-name="d" unicode="d" horiz-adv-x="1220" vert-adv-y="2275" d="M611-25q-163 0-286.5 91.5T145 316q-35 99-35 201 0 101 35 200 56 158 179.5 250t286.5 92q123 0 230.5-56.5T1014 844l31-47v672h65V0h-65v236l-31-47Q949 87 841.5 31T611-25zm0 57q115 0 219 62 105 62 160 178t55 245q0 128-55.5 244.5T830 940q-103 61-219 61t-219-61q-104-61-159-177.5T178 517q0-130 54.5-246T392 94q105-62 219-62z"/><glyph glyph-name="e" unicode="e" horiz-adv-x="1253" vert-adv-y="2275" d="M626-25q-147 0-266 72.5T175.5 244 110 517t65.5 273T360 986.5t266 72.5q148 0 267-72.5T1077.5 790t65.5-273v-12l-965 1 1-17q7-195 131-326T626 32q142 0 251.5 75.5T1038 315l62-19q-58-148-186-234.5T626-25zM181 582l-2-19h894l-2 19q-19 183-141.5 301T626 1001q-183 0-302.5-117T181 582z"/><glyph glyph-name="f" unicode="f" horiz-adv-x="781" vert-adv-y="2275" d="M398 1001V0h-66v1001H110v58h222v209q0 265 259 284h26q34 0 54-5v-55q-22 6-50 6-11 0-29-2-103-9-148.5-65.5T398 1270v-211h266v-58H398z"/><glyph glyph-name="g" unicode="g" horiz-adv-x="1220" vert-adv-y="2275" d="M636-463q-103 0-201.5 34T274-328q-67 72-96 155h73q17-47 63-102 54-65 144-98t182-33q183 0 294.5 113.5T1046 5v229l-30-44Q866-25 611-25q-163 0-286.5 91.5T145 316q-35 99-35 201 0 101 35 200 56 158 179.5 250t286.5 92q254 0 405-216l30-44v234h64V40q0-230-124.5-366.5T636-463zM611 32q115 0 219 62 105 62 160 178t55 245q0 128-55.5 244.5T830 940q-103 61-219 61t-219-61q-104-61-159-177.5T178 517q0-130 54.5-246T392 94q105-62 219-62z"/><glyph glyph-name="h" unicode="h" vert-adv-y="2275" d="M176 678V0h-66v1469h66V899l30 46q39 59 131.5 86.5T524 1059q211 0 313-108 102-109 102-280V0h-65v641q0 362-350 362-181 0-266-96-38-43-60-106.5T176 678z"/><glyph glyph-name="i" unicode="i" horiz-adv-x="350" vert-adv-y="2275" d="M175 1339q-28 0-46.5 18t-18.5 46q0 29 18 47.5t47 18.5q28 0 46.5-18.5T240 1403q0-27-19-45.5t-46-18.5zm32-280V0h-66v1059h66z"/><glyph glyph-name="j" unicode="j" horiz-adv-x="489" vert-adv-y="2275" d="M313 1339q-28 0-46.5 18t-18.5 46q0 29 18 47.5t47 18.5 47.5-18.5T379 1403q0-27-19-45.5t-47-18.5zM165-464q-19 0-55 2v57q22-2 34-2 80 0 108 47t28 127v1292h65V-250q0-104-41.5-159T165-464z"/><glyph glyph-name="k" unicode="k" horiz-adv-x="1110" vert-adv-y="2275" d="M179 315V-1h-69v1470h69V416l712 644h103L509 617 1000-1h-89L460 571z"/><glyph glyph-name="l" unicode="l" horiz-adv-x="455" vert-adv-y="2275" d="M299-2Q197-2 153.5 50.5T110 211v1264h66V229q0-90 30.5-134T325 55l20 1V-1q-7 0-22.5-.5T299-2z"/><glyph glyph-name="m" unicode="m" horiz-adv-x="1678" vert-adv-y="2275" d="M177 641V0h-67v1059h66V908l29 33q98 113 289 113 79 0 154-26t123-77q29-32 55-77l15-26 14 27q95 179 334 179 175 0 277-103.5T1568 671V0h-65v641q0 173-83 266-84 94-231 94h-5q-158-4-235-101.5T872 641V0h-65v641q0 174-83 266-83 94-231 94h-4q-107-3-178.5-51T208 824t-31-183z"/><glyph glyph-name="n" unicode="n" vert-adv-y="2275" d="M176 678V0h-66v1059h66V899l30 46q39 59 131.5 86.5T524 1059q211 0 313-108 102-109 102-280V0h-65v641q0 362-350 362-181 0-266-96-38-43-60-106.5T176 678z"/><glyph glyph-name="o" unicode="o" horiz-adv-x="1222" vert-adv-y="2275" d="M611-25q-163 0-286.5 91.5T145 316q-35 100-35 201t35 200q56 158 179.5 250t286.5 92 287-92 179-250q35-99 35-200t-35-201q-55-158-179-249.5T611-25zm0 57q115 0 219 62 105 62 160 178t55 245q0 128-55.5 244.5T830 940q-103 61-219 61t-219-61q-104-61-159-177.5T178 517q0-130 54.5-246T392 94q105-62 219-62z"/><glyph glyph-name="p" unicode="p" horiz-adv-x="1220" vert-adv-y="2275" d="M176 237v-698h-66v1520h66V798l30 47q66 102 173 158.5t230 56.5q163 0 287-92t179-250q35-99 35-201 0-101-35-200-55-158-179-249.5T609-24q-123 0-230 56T206 190zM609 33q116 0 219 61 104 62 159.5 178.5T1043 517q0 129-55 245T828 940q-104 62-219 62-114 0-219-62-105-61-159.5-177T176 517q0-129 55-245.5T390 94q103-61 219-61z"/><glyph glyph-name="q" unicode="q" horiz-adv-x="1220" vert-adv-y="2275" d="M1110 1059V-461h-65v698l-31-47Q949 88 841.5 32T611-24q-163 0-286.5 91.5T145 317q-35 99-35 200 0 102 35 201 56 158 179.5 250t286.5 92q123 0 230.5-56.5T1014 845l31-47v261h65zM611 33q116 0 219 61 104 62 159.5 178.5T1045 517q0 129-55 245T830 940q-104 62-219 62-114 0-219-62-105-61-159.5-177T178 517q0-129 55-245.5T392 94q103-61 219-61z"/><glyph glyph-name="r" unicode="r" horiz-adv-x="618" vert-adv-y="2275" d="M176 678V0h-66v1059h66V899l30 46q37 56 124 83.5t178 29.5v-55q-171-6-250-96-38-43-60-106.5T176 678z"/><glyph glyph-name="s" unicode="s" horiz-adv-x="957" vert-adv-y="2275" d="M480-14q-232 0-329 173-31 57-39 123h66q17-113 101-175t201-62q83 0 162 30t113 96q26 50 26 96 0 120-114 174-42 21-111 36-40 9-124 25-60 12-99.5 22.5t-86 31-73 47.5-45 71T110 775q0 113 100 198 101 86 267 86 231 0 329-173 32-59 39-124h-66q-17 113-101 175t-201 62q-51 0-101-10.5t-100.5-40T202 873q-26-50-26-96 0-120 114-174 40-18 111-36 21-5 63-13t61-12q50-10 84-18.5t74.5-23 67-33.5 50-46 35-65 11.5-86q0-114-100-199T480-14z"/><glyph glyph-name="t" unicode="t" horiz-adv-x="740" vert-adv-y="2275" d="M513-2q-96 0-138 55t-42 158v790H110v58h223v416h66v-416h230v-58H399V229q0-85 29-129.5T542 55q30 0 88 2V1z"/><glyph glyph-name="u" unicode="u" vert-adv-y="2275" d="M524 0Q313 0 211 108 110 216 110 388v671h65V417q0-362 349-362 181 0 267 96 38 43 60 106.5T873 381v678h66V0h-66v160l-30-46q-39-59-131.5-86.5T524 0z"/><glyph glyph-name="v" unicode="v" horiz-adv-x="1203" vert-adv-y="2275" d="M1093 1061 647 0h-91L110 1061h74L600 62l415 999h78z"/><glyph glyph-name="w" unicode="w" horiz-adv-x="1792" vert-adv-y="2275" d="M897 975 558-5h-77L110 1066h67L518 65l341 1001h75L1275 66l340 1000h67L1311-5h-76z"/><glyph glyph-name="x" unicode="x" horiz-adv-x="1167" vert-adv-y="2275" d="M585 474 220 0h-90l412 525-432 536h90l385-484 385 484h87L626 525 1037 0h-86z"/><glyph glyph-name="y" unicode="y" horiz-adv-x="1202" vert-adv-y="2275" d="M1092 1061 453-463h-70L568-17 110 1061h74L600 62l415 999h77z"/><glyph glyph-name="z" unicode="z" horiz-adv-x="1043" vert-adv-y="2275" d="M933 57V0H112v58l727 943H110v58h820v-54L202 57h731z"/><glyph glyph-name="braceleft" unicode="{" horiz-adv-x="595" vert-adv-y="2275" d="M459-351q-105 0-160 64t-55 173v555q0 130-123 130H83v60h38q123 0 123 131v555q0 110 55 173.5t160 63.5q57 0 91-7v-60q-39 7-85 7-78 0-116.5-43.5T310 1329V779q0-127-69-163l-26-14 26-15q69-40 69-164v-550q0-164 155-164 44 0 85 7v-60q-35-7-91-7z"/><glyph glyph-name="bar" unicode="|" horiz-adv-x="522" vert-adv-y="2275" d="M294 1554V0h-65v1554h65z"/><glyph glyph-name="braceright" unicode="}" horiz-adv-x="595" vert-adv-y="2275" d="M136-351q-56 0-90 7v59q42-6 83-6 78 0 117 43t39 121v550q0 126 68 164l28 15-28 14q-68 35-68 163v550q0 165-156 165-45 0-83-7v60q34 7 90 7 105 0 159.5-64t54.5-173V762q0-61 31-96t93-35h38v-60h-38q-62 0-93-34t-31-96v-555q0-109-55-173t-159-64z"/><glyph glyph-name="asciitilde" unicode="~" horiz-adv-x="1174" vert-adv-y="2275" d="M803 432q-74 0-215 47-67 23-109 34-64 16-110 16-55 0-109.5-24.5T170 437l-54 43q19 26 55 57 78 64 200 64 74 0 215-47 67-23 109-34 64-16 110-16 56 0 109.5 24.5T1003 596l55-43q-21-30-55-57-79-64-200-64z"/><glyph glyph-name="exclamdown" unicode="¡" horiz-adv-x="460" vert-adv-y="2275" d="M229 920q-31 0-50 19.5T160 991q0 29 19.5 48.5T229 1059q29 0 49.5-20t20.5-48q0-31-19.5-51T229 920zm24-147 16-1201h-82l17 1201h49z"/><glyph glyph-name="cent" unicode="¢" horiz-adv-x="1181" vert-adv-y="2275" d="M633 193V-38h-56v231l-15 1q-77 7-158 41-170 71-256 273-44 104-44 227 0 211 127.5 366.5T562 1274l15 2v231h56v-231l15-2q160-11 272.5-109T1075 910h-68q-37 131-129 212t-227 95l-18 2V251l18 1q65 4 140 37 79 34 135.5 107.5T1008 559h67q-42-158-154.5-255.5T648 195zm-74 59 18-2v969l-18-2q-107-12-199-76-94-65-141-174.5T172 735t47.5-233T360 327q93-65 199-75z"/><glyph glyph-name="sterling" unicode="£" horiz-adv-x="1174" vert-adv-y="2275" d="M769-32q-88 0-210 45-76 29-120 41-68 20-127 20-53 0-111.5-25T100-14L66 29q37 32 83 57 5 3 21 9t23 11q15 9 27 21 13 11 22 22 114 115 114 298 0 77-31 160l-4 11H71v66h221l-13 24q-67 132-84 179-34 94-34 192 0 125 52.5 222T372 1451q97 50 234 50 210 0 329.5-124t119.5-337q0-16-1-25h-69l1 20q0 110-41 207-43 101-134 149t-205 48q-177 0-276-97t-99-275q0-132 74-277 1-1 21-40t31-58l5-8h429v-66H393l6-21q23-75 23-150 0-176-99-285l-25-28h37q76 0 223-51 68-25 114-36 66-17 122-17 98 0 174 50 66 46 96 95l44-31q-19-30-61-70-53-52-126.5-79T769-32z"/><glyph glyph-name="currency" unicode="¤" horiz-adv-x="1209" vert-adv-y="2275" d="m378 218-11 10L215 74l-47 49 153 154-10 11q-37 44-57.5 106.5T233 517q0 59 21 121.5T311 745l9 11-152 156 46 47 152-156 12 10q100 80 228 80 58 0 121-22t106-58l11-10 153 154 47-47-151-153 8-11q79-112 79-229 0-128-78-231l-9-12 149-151-46-46-151 150-12-8q-46-35-108-57t-119-22q-89 0-165 40l-33 18q-24 15-30 20zm228-18q130 0 222 93t92 224q0 130-92.5 223.5T606 834q-128 0-221-94t-93-223q0-130 92.5-223.5T606 200z"/><glyph glyph-name="yen" unicode="¥" horiz-adv-x="1160" vert-adv-y="2275" d="M613 340V0h-68v340H236v61h309v229H236v61h319L89 1469h72l420-701 409 701h81L600 691h324v-61H613V401h311v-61H613z"/><glyph glyph-name="brokenbar" unicode="¦" horiz-adv-x="522" vert-adv-y="2275" d="M294 1551V948h-65v603h65zm0-948V0h-65v603h65z"/><glyph glyph-name="section" unicode="§" horiz-adv-x="1148" vert-adv-y="2275" d="M568-400q-170 0-266 91-89 86-108 225h64q17-107 89-179 78-77 221-77 140 0 215 66 78 69 78 167 0 186-262 294l-87 36q-206 86-293 173-88 89-88 218 0 102 59.5 182.5T349 918l26 11-22 18q-130 99-130 253 0 134 98 217 99 84 261 84 170 0 264-91 89-85 110-225h-64q-19 107-90 178-78 78-220 78-148 0-220-67-73-68-73-165 0-131 123-219 45-33 112-64 22-10 112-49 212-90 294-172 88-88 88-219 0-46-19-105-21-65-76.5-118T797 181l-27-12 24-17Q927 59 927-99q0-143-104.5-222T568-400zm-22 677 169-74 5 2q101 28 169 102.5T957 484q0 91-66 168-64 74-288 172l-170 74-6-1q-101-29-168-103.5T192 616q0-89 66-167 64-74 288-172z"/><glyph glyph-name="dieresis" unicode="¨" horiz-adv-x="748" vert-adv-y="2275" d="M231 1353q-29 0-47 17.5t-18 45.5q0 29 18 47.5t47 18.5q28 0 46.5-19t18.5-47q0-27-18.5-45t-46.5-18zm286 0q-29 0-47 17.5t-18 45.5q0 29 18 47.5t47 18.5q28 0 46.5-19t18.5-47q0-27-18.5-45t-46.5-18z"/><glyph glyph-name="copyright" unicode="©" horiz-adv-x="1652" vert-adv-y="2275" d="M826-28q-216 0-389 98.5T166.5 344 69 737t97.5 392.5 270.5 273 389 98.5q161 0 301.5-57.5t240.5-158 157.5-243T1583 737q0-218-97.5-393T1215 70.5 826-28zm0 54q204 0 362.5 91.5t244.5 253 86 366.5-86.5 366.5-245 252.5-361.5 91q-204 0-362.5-91t-245-252.5T132 737t86.5-366.5 245-253T826 26zm-2 312q-113 0-207 64T484 571q-31 82-31 166 0 64 17 129 19 71 67 130t115 97q74 42 172 42 104 0 194.5-48.5T1152 950q21-44 32-90h-65q-30 127-146 187-62 33-147 33-98 0-168-48T555 908t-33-171q0-32 10-92 10-68 48-123.5t97-91.5q60-36 149-36 87 0 147 32 55 28 93.5 77.5T1119 614h65q-9-41-29-83-46-95-133.5-144T824 338z"/><glyph glyph-name="ordfeminine" unicode="ª" horiz-adv-x="533" vert-adv-y="2275" d="M239 892q-83 0-134 36.5T54 1041q0 54 29 90t82 49q17 4 49 8l52 3q54 3 162 11l16 1v31q0 157-169 157-161 0-168-150l-37-1q2 89 56.5 134.5T275 1420q95 0 149.5-47t54.5-140V904h-35v86l-29-32q-61-66-176-66zm0 29q84 0 144.5 46.5T444 1100v76l-18-2q-14-1-59-3.5t-70-4.5q-42-3-69-6-58-9-70-15-67-30-67-104 0-65 43-92.5T239 921z"/><glyph glyph-name="guillemotleft" unicode="«" horiz-adv-x="938" vert-adv-y="1800" d="M222 517 443 89h-76L145 517l222 427h76zm350 0L793 89h-75L497 517l221 427h75z"/><glyph glyph-name="logicalnot" unicode="¬" horiz-adv-x="1186" vert-adv-y="2275" d="M1116 548V95h-66v388H71v65h1045z"/><glyph glyph-name="registered" unicode="®" horiz-adv-x="1211" vert-adv-y="2275" d="M606 417q-232 0-384.5 154.5T69 959q0 234 152.5 388T606 1501q169 0 303.5-88t194.5-245q39-105 39-209 0-109-39-209-61-157-195-245t-303-88zm0 49q219 0 349 136t130 357-130.5 356.5T606 1451t-349-136-131-356 130.5-356.5T606 466zM484 880V701h-55v514h185q92 0 149-41t57-126q0-105-89-146l-16-7 102-194h-65l-90 182-12-1q-41-4-149-2h-17zm145 284H484V931h145q56 0 94.5 29t38.5 88q0 58-38.5 87t-94.5 29z"/><glyph glyph-name="macron" unicode="¯" horiz-adv-x="785" vert-adv-y="2275" d="M694 1424v-59H91v59h603z"/><glyph glyph-name="degree" unicode="°" horiz-adv-x="771" vert-adv-y="2275" d="M384 850q-136 0-230 95t-94 232 94 230.5 230 93.5 228-93.5 92-230.5-92.5-232T384 850zm0 56q113 0 183 79t70 192q0 114-70.5 191T384 1445q-115 0-185.5-76T128 1177q0-77 36.5-145.5T269 933q57-27 115-27z"/><glyph glyph-name="plusminus" unicode="±" horiz-adv-x="1186" vert-adv-y="2275" d="M626 589V212h-64v377H71v65h491v379h64V654h490v-65H626zm490-523V0H71v66h1045z"/><glyph glyph-name="uni00B2" unicode="²" horiz-adv-x="422" vert-adv-y="1800" d="M378 943v-39H40v34l204 185q78 70 78 142 0 56-30.5 89.5T204 1388q-56 0-86-33.5T88 1265v-20H45l-1 14q0 76 42.5 121t117.5 45 118.5-42 43.5-116q0-90-95-174L103 943h275z"/><glyph glyph-name="uni00B3" unicode="³" horiz-adv-x="422" vert-adv-y="1800" d="M210 900q-149 0-171 155h45q17-117 126-117 56 0 90 29t34 86q0 74-79 93-28 7-62 7h-40v39h36q41 2 61 7 77 19 77 91 0 54-34.5 79t-86.5 25q-96 0-112-102H49q11 65 51.5 102t106.5 37q72 0 117.5-37t45.5-104q0-66-53-100l-22-15 23-13q60-35 60-109 0-72-46.5-112.5T210 900z"/><glyph glyph-name="acute" unicode="´" horiz-adv-x="671" vert-adv-y="2275" d="m436 1653-146-326h-59l129 326h76z"/><glyph glyph-name="paragraph" unicode="¶" horiz-adv-x="1195" vert-adv-y="2275" d="M672 1410V-419h-64V589h-17q-324 0-436 238-41 85-41 201 0 90 33 172 54 134 172.5 201.5T591 1469h375V-419h-66v1829H672z"/><glyph glyph-name="periodcentered" unicode="·" horiz-adv-x="389" vert-adv-y="2275" d="M194 455q-30 0-49.5 19T125 523q0 31 19 50.5t50 19.5q30 0 50-20t20-50q0-28-20.5-48T194 455z"/><glyph glyph-name="cedilla" unicode="¸" horiz-adv-x="543" vert-adv-y="2275" d="M250-499q-77 0-129 40l26 42q46-33 107-33 59 0 99 34t40 95q0 60-37 93t-96 33q-67 0-106-42l-32 18L209-4h44l-72-179 39 20q21 11 59 11 75 0 123.5-47T451-321q0-81-58-129.5T250-499z"/><glyph glyph-name="uni00B9" unicode="¹" horiz-adv-x="422" vert-adv-y="1800" d="M369 939v-39H80v39h123v432H87v41l159-1V939h123z"/><glyph glyph-name="ordmasculine" unicode="º" horiz-adv-x="618" vert-adv-y="2275" d="M309 900q-110 0-182.5 79T54 1172q0 113 72.5 191.5T309 1442t182.5-78.5T564 1172q0-114-72.5-193T309 900zm0 50q51 0 100 28t73.5 81.5T507 1172q0 90-54 155.5T309 1393t-144-65.5-54-155.5q0-59 24.5-112.5T209 978t100-28z"/><glyph glyph-name="guillemotright" unicode="»" horiz-adv-x="938" vert-adv-y="1800" d="M441 517 222 89h-77l222 428-222 427h77zm350 0L572 89h-77l223 428-223 427h77z"/><glyph glyph-name="questiondown" unicode="¿" horiz-adv-x="1047" vert-adv-y="2275" d="M531 905q-30 0-50 20.5T461 976q0 29 20.5 48.5T531 1044q31 0 50-18.5t19-49.5q0-32-19-51.5T531 905zM512-474q-70 0-149 21-156 42-233 194-39 78-39 181 0 112 46.5 198.5T277 295q13 12 40.5 37.5t48 45.5 38.5 39q68 72 88 142 10 34 10 74v140h66V633q0-96-60-183-23-33-63-75-36-37-74-71-39-37-61-59.5t-53.5-62-48.5-74-30-82T165-72q0-159 95-249.5T512-412q162 0 258.5 102.5T867-44q0 22-4 68h74q4-48 4-72 0-187-121.5-306.5T512-474z"/><glyph glyph-name="Agrave" unicode="À" horiz-adv-x="1546" vert-adv-y="2275" d="m747 2064 129-326h-59l-146 326h76zM362 425 186 0h-76l618 1469h91L1436 0h-79l-176 425H362zm790 66-381 916-381-916h762z"/><glyph glyph-name="Aacute" unicode="Á" horiz-adv-x="1546" vert-adv-y="2275" d="m875 2064-147-326h-58l129 326h76zM362 425 186 0h-76l618 1469h91L1436 0h-79l-176 425H362zm790 66-381 916-381-916h762z"/><glyph glyph-name="Acircumflex" unicode="Â" horiz-adv-x="1546" vert-adv-y="2275" d="m772 1955 248-129v-69l-248 127-247-127v69zM362 425 186 0h-76l618 1469h91L1436 0h-79l-176 425H362zm790 66-381 916-381-916h762z"/><glyph glyph-name="Atilde" unicode="Ã" horiz-adv-x="1546" vert-adv-y="2275" d="M906 1838q-48 0-134 41-49 24-67 30-38 14-68 14-86 0-107-78h-62q14 66 59 102.5t114 36.5q51 0 135-40 52-25 66-30 37-14 68-14 85 0 107 78h62q-14-66-59-103t-114-37zM362 425 186 0h-76l618 1469h91L1436 0h-79l-176 425H362zm790 66-381 916-381-916h762z"/><glyph glyph-name="Adieresis" unicode="Ä" horiz-adv-x="1546" vert-adv-y="2275" d="M630 1763q-29 0-47 18t-18 46q0 29 18.5 47.5T630 1893t46.5-19 18.5-47-18.5-46-46.5-18zm286 0q-29 0-47.5 17.5T850 1827t18.5 47.5T916 1893q27 0 46-19t19-47-18.5-46-46.5-18zM362 425 186 0h-76l618 1469h91L1436 0h-79l-176 425H362zm790 66-381 916-381-916h762z"/><glyph glyph-name="Aring" unicode="Å" horiz-adv-x="1546" vert-adv-y="2275" d="M774 1740q-88 0-148 59t-60 148q0 41 20 89 23 54 75 86t113 32q45 0 92-21 52-22 83-74t31-112q0-39-19-91-20-53-73.5-84.5T774 1740zm0 49q68 0 109.5 45.5T925 1947t-41.5 112.5T774 2105t-109-45-41-113 41-113 109-45zM362 425 186 0h-76l618 1469h91L1436 0h-79l-176 425H362zm790 66-381 916-381-916h762z"/><glyph glyph-name="AE" unicode="Æ" horiz-adv-x="2742" vert-adv-y="2275" d="M394 502 186 0h-76l618 1469h1000v-66H856V779h733v-66H856V66h872V0H787v502H394zm393 67-1 877-365-877h366z"/><glyph glyph-name="Ccedilla" unicode="Ç" horiz-adv-x="1613" vert-adv-y="2275" d="M775-499q-77 0-129 40l26 42q46-33 107-33 59 0 98.5 34t39.5 95q0 60-36.5 93T785-195q-67 0-106-42l-32 18 78 194-21 3Q497 9 352 140q-103 93-157 209-52 113-68 213-17 97-17 173 0 116 34 246 33 129 114 243t191 176q180 101 376 101 251 0 434-138t244-379h-73q-54 211-219.5 333T825 1439q-147 0-269.5-56t-203-152T228 1007t-44-272 44-272 124.5-224.5T555 86t270-56q220 0 385.5 122T1430 485h73q-65-253-262.5-392T779-31l-12 1-61-153 39 20q21 11 59 11 75 0 123.5-47T976-321q0-36-18-79-22-48-73-73.5T775-499z"/><glyph glyph-name="Egrave" unicode="È" horiz-adv-x="1161" vert-adv-y="2275" d="m555 2064 129-326h-59l-147 326h77zM1051 66V0H110v1469h941v-66H179V779h734v-66H179V66h872z"/><glyph glyph-name="Eacute" unicode="É" horiz-adv-x="1161" vert-adv-y="2275" d="m682 2064-146-326h-59l129 326h76zM1051 66V0H110v1469h941v-66H179V779h734v-66H179V66h872z"/><glyph glyph-name="Ecircumflex" unicode="Ê" horiz-adv-x="1161" vert-adv-y="2275" d="m580 1955 248-129v-69l-248 127-247-127v69zM1051 66V0H110v1469h941v-66H179V779h734v-66H179V66h872z"/><glyph glyph-name="Edieresis" unicode="Ë" horiz-adv-x="1161" vert-adv-y="2275" d="M438 1763q-29 0-47.5 18t-18.5 46q0 29 19 47.5t47 18.5q27 0 46-19t19-47-18.5-46-46.5-18zm285 0q-29 0-47 17.5t-18 46.5 18 47.5 47 18.5q28 0 46.5-19t18.5-47-18.5-46-46.5-18zM1051 66V0H110v1469h941v-66H179V779h734v-66H179V66h872z"/><glyph glyph-name="Igrave" unicode="Ì" horiz-adv-x="625" vert-adv-y="2275" d="m287 2064 129-326h-59l-146 326h76zM515 59V0H110v59h168v1351H110v59h405v-59H347V59h168z"/><glyph glyph-name="Iacute" unicode="Í" horiz-adv-x="625" vert-adv-y="2275" d="m415 2064-146-326h-59l129 326h76zM515 59V0H110v59h168v1351H110v59h405v-59H347V59h168z"/><glyph glyph-name="Icircumflex" unicode="Î" horiz-adv-x="626" vert-adv-y="2275" d="m313 1955 248-129v-69l-248 127-247-127v69zM515 59V0H110v59h168v1351H110v59h405v-59H348V59h167z"/><glyph glyph-name="Idieresis" unicode="Ï" horiz-adv-x="625" vert-adv-y="2275" d="M170 1763q-29 0-47 18t-18 46q0 29 18.5 47.5T170 1893t46.5-19 18.5-47-18.5-46-46.5-18zm286 0q-29 0-47 17.5t-18 46.5 18 47.5 47 18.5q28 0 46.5-19t18.5-47-18.5-46-46.5-18zM515 59V0H110v59h168v1351H110v59h405v-59H347V59h168z"/><glyph glyph-name="Ntilde" unicode="Ñ" horiz-adv-x="1344" vert-adv-y="2275" d="M804 1838q-46 0-134 41-50 24-66 30-39 14-68 14-87 0-108-78h-62q14 66 59.5 102.5T540 1984q51 0 135-40 44-22 65-30 38-14 68-14 86 0 108 78h61q-14-66-59-103t-114-37zm-625-461V0h-69v1469h88L1165 90v1379h69V0h-88z"/><glyph glyph-name="Ograve" unicode="Ò" horiz-adv-x="1697" vert-adv-y="2275" d="m823 2064 129-326h-59l-146 326h76zM848-32q-161 0-299 59T315 188 164.5 432 110 735q0 216 93 390.5t262 275T848 1501q215 0 384.5-100.5t262-275T1587 735q0-162-54.5-303.5T1382 188 1147.5 27 848-32zm0 62q148 0 273.5 55T1332 235t133 224.5 48 275.5q0 196-81.5 355.5t-234.5 254-349 94.5-348.5-94.5-234-254.5T184 735t81-355 234-255 349-95z"/><glyph glyph-name="Oacute" unicode="Ó" horiz-adv-x="1697" vert-adv-y="2275" d="m951 2064-147-326h-58l129 326h76zM848-32q-161 0-299 59T315 188 164.5 432 110 735q0 216 93 390.5t262 275T848 1501q215 0 384.5-100.5t262-275T1587 735q0-162-54.5-303.5T1382 188 1147.5 27 848-32zm0 62q148 0 273.5 55T1332 235t133 224.5 48 275.5q0 196-81.5 355.5t-234.5 254-349 94.5-348.5-94.5-234-254.5T184 735t81-355 234-255 349-95z"/><glyph glyph-name="Ocircumflex" unicode="Ô" horiz-adv-x="1697" vert-adv-y="2275" d="m848 1955 248-129v-69l-248 127-246-127v69zm0-1987q-161 0-299 59T315 188 164.5 432 110 735q0 216 93 390.5t262 275T848 1501q215 0 384.5-100.5t262-275T1587 735q0-162-54.5-303.5T1382 188 1147.5 27 848-32zm0 62q148 0 273.5 55T1332 235t133 224.5 48 275.5q0 196-81.5 355.5t-234.5 254-349 94.5-348.5-94.5-234-254.5T184 735t81-355 234-255 349-95z"/><glyph glyph-name="Otilde" unicode="Õ" horiz-adv-x="1697" vert-adv-y="2275" d="M981 1838q-48 0-134 41-49 24-67 30-39 14-68 14-86 0-107-78h-62q14 66 59 102.5t114 36.5q51 0 135-40 52-25 66-30 39-14 68-14 85 0 107 78h62q-14-66-59-103t-114-37zM848-32q-161 0-299 59T315 188 164.5 432 110 735q0 216 93 390.5t262 275T848 1501q215 0 384.5-100.5t262-275T1587 735q0-162-54.5-303.5T1382 188 1147.5 27 848-32zm0 62q148 0 273.5 55T1332 235t133 224.5 48 275.5q0 196-81.5 355.5t-234.5 254-349 94.5-348.5-94.5-234-254.5T184 735t81-355 234-255 349-95z"/><glyph glyph-name="Odieresis" unicode="Ö" horiz-adv-x="1697" vert-adv-y="2275" d="M706 1763q-29 0-47 18t-18 46q0 29 18.5 47.5T706 1893t46.5-19 18.5-47-18.5-46-46.5-18zm286 0q-29 0-47 17.5t-18 46.5 18 47.5 47 18.5q27 0 46-19t19-47-18.5-46-46.5-18zM848-32q-161 0-299 59T315 188 164.5 432 110 735q0 216 93 390.5t262 275T848 1501q215 0 384.5-100.5t262-275T1587 735q0-162-54.5-303.5T1382 188 1147.5 27 848-32zm0 62q148 0 273.5 55T1332 235t133 224.5 48 275.5q0 196-81.5 355.5t-234.5 254-349 94.5-348.5-94.5-234-254.5T184 735t81-355 234-255 349-95z"/><glyph glyph-name="multiply" unicode="×" horiz-adv-x="1171" vert-adv-y="2275" d="M976 77 586 470 193 74l-45 47 392 396-392 395 45 47 393-396 390 394 46-47-391-393 391-394z"/><glyph glyph-name="Oslash" unicode="Ø" horiz-adv-x="1697" vert-adv-y="2275" d="m607 5-14 5-117-290-63 24L530 35l-14 7q-193 93-299.5 280.5T110 735q0 216 93 390.5t262 275T848 1501q125 0 242-36l14-5 111 278 63-23-112-281 15-6q192-90 299-280t107-413q0-162-54.5-303.5T1382 188 1147.5 27 848-32Q722-32 607 5zm-69 99 16-8 526 1304-16 6q-100 33-216 33-196 0-348.5-94.5t-234-254.5T184 735q0-202 91-373t263-258zm310-74q148 0 273.5 55T1332 235t133 224.5 48 275.5q0 203-91.5 373.5T1158 1366l-16 8L617 70l16-6q103-34 215-34z"/><glyph glyph-name="Ugrave" unicode="Ù" horiz-adv-x="1345" vert-adv-y="2275" d="m646 2064 130-326h-59l-147 326h76zM672-32q-142 0-250.5 47t-176 133T144 349.5 110 606v863h70V586q0-117 30.5-216.5t90-176 155-120T672 30t216 43.5T1043 193t91 176 31 217v883h70V606q0-142-34-257t-102-201T922.5 15 672-32z"/><glyph glyph-name="Uacute" unicode="Ú" horiz-adv-x="1345" vert-adv-y="2275" d="m774 2064-146-326h-59l129 326h76zM672-32q-142 0-250.5 47t-176 133T144 349.5 110 606v863h70V586q0-117 30.5-216.5t90-176 155-120T672 30t216 43.5T1043 193t91 176 31 217v883h70V606q0-142-34-257t-102-201T922.5 15 672-32z"/><glyph glyph-name="Ucircumflex" unicode="Û" horiz-adv-x="1345" vert-adv-y="2275" d="m672 1955 248-129v-69l-248 127-247-127v69zm0-1987q-142 0-250.5 47t-176 133T144 349.5 110 606v863h70V586q0-117 30.5-216.5t90-176 155-120T672 30t216 43.5T1043 193t91 176 31 217v883h70V606q0-142-34-257t-102-201T922.5 15 672-32z"/><glyph glyph-name="Udieresis" unicode="Ü" horiz-adv-x="1345" vert-adv-y="2275" d="M529 1763q-29 0-47 18t-18 46 18.5 47 46.5 19 47-19 19-47-18.5-46-47.5-18zm286 0q-29 0-47 17.5t-18 46.5 18 47.5 47 18.5q28 0 46.5-19t18.5-47-18.5-46-46.5-18zM672-32q-142 0-250.5 47t-176 133T144 349.5 110 606v863h70V586q0-117 30.5-216.5t90-176 155-120T672 30t216 43.5T1043 193t91 176 31 217v883h70V606q0-142-34-257t-102-201T922.5 15 672-32z"/><glyph glyph-name="Yacute" unicode="Ý" horiz-adv-x="1470" vert-adv-y="2275" d="m837 2064-147-326h-58l129 326h76zM767 733V0h-69v739l-588 730h92l534-672 536 672h88z"/><glyph glyph-name="germandbls" unicode="ß" horiz-adv-x="1185" vert-adv-y="2275" d="M297 1116V-431h-65l-9 1547v2q1 3 1 8l2 12q11 68 40 125 56 115 159.5 176.5T660 1501q68 0 129.5-13t118-39.5 101-71.5 69.5-106q34-78 34-168 0-118-67-205.5T864 773l-54-18 55-14q127-33 199-122.5t72-220.5q0-201-123.5-312.5T687-31v61q171 5 273 99t102 269q0 89-35.5 154t-97 100T799 703t-149 16H528v67h106q122 0 210 36 90 39 143 111.5t53 169.5q0 169-106.5 252.5T658 1439q-93 0-173-36.5T358 1291q-42-67-57-147l-2-13q-1-3-1-8z"/><glyph glyph-name="agrave" unicode="à" horiz-adv-x="1085" vert-adv-y="2275" d="m517 1653 129-326h-58l-147 326h76zM486-25q-268 0-347 166-29 59-29 137 0 112 59 185.5T337 564q42 10 101 15 4 0 104 7 114 9 352 23l15 1v67q0 166-91.5 246T560 1003q-163 0-254-75.5T210 693l-65-1q4 183 114.5 275t300.5 92q194 0 304.5-96.5T975 675V0h-66v201l-30-45Q758-25 486-25zm0 55q129 0 222 46 96 48 148.5 132T909 400v158l-17-1-245-17q-88-5-164-12-117-11-165-31-140-63-140-219 0-69 26-119t71.5-77T373 42.5 486 30z"/><glyph glyph-name="aacute" unicode="á" horiz-adv-x="1085" vert-adv-y="2275" d="m645 1653-146-326h-59l129 326h76zM486-25q-268 0-347 166-29 59-29 137 0 112 59 185.5T337 564q42 10 101 15 4 0 104 7 114 9 352 23l15 1v67q0 166-91.5 246T560 1003q-163 0-254-75.5T210 693l-65-1q4 183 114.5 275t300.5 92q194 0 304.5-96.5T975 675V0h-66v201l-30-45Q758-25 486-25zm0 55q129 0 222 46 96 48 148.5 132T909 400v158l-17-1-245-17q-88-5-164-12-117-11-165-31-140-63-140-219 0-69 26-119t71.5-77T373 42.5 486 30z"/><glyph glyph-name="acircumflex" unicode="â" horiz-adv-x="1085" vert-adv-y="2275" d="m543 1544 247-129v-68l-247 127-247-127v68zM486-25q-268 0-347 166-29 59-29 137 0 112 59 185.5T337 564q42 10 101 15 4 0 104 7 114 9 352 23l15 1v67q0 166-91.5 246T560 1003q-163 0-254-75.5T210 693l-65-1q4 183 114.5 275t300.5 92q194 0 304.5-96.5T975 675V0h-66v201l-30-45Q758-25 486-25zm0 55q129 0 222 46 96 48 148.5 132T909 400v158l-17-1-245-17q-88-5-164-12-117-11-165-31-140-63-140-219 0-69 26-119t71.5-77T373 42.5 486 30z"/><glyph glyph-name="atilde" unicode="ã" horiz-adv-x="1085" vert-adv-y="2275" d="M675 1428q-52 0-134 41-5 2-29.5 13t-36.5 16q-37 15-69 15-87 0-107-79h-62q14 66 59 103t114 37q50 0 136-41 36-18 65-29 37-15 68-15 85 0 108 79h61q-14-66-59-103t-114-37zM486-25q-268 0-347 166-29 59-29 137 0 112 59 185.5T337 564q42 10 101 15 4 0 104 7 114 9 352 23l15 1v67q0 166-91.5 246T560 1003q-163 0-254-75.5T210 693l-65-1q4 183 114.5 275t300.5 92q194 0 304.5-96.5T975 675V0h-66v201l-30-45Q758-25 486-25zm0 55q129 0 222 46 96 48 148.5 132T909 400v158l-17-1-245-17q-88-5-164-12-117-11-165-31-140-63-140-219 0-69 26-119t71.5-77T373 42.5 486 30z"/><glyph glyph-name="adieresis" unicode="ä" horiz-adv-x="1085" vert-adv-y="2275" d="M400 1353q-29 0-47 17.5t-18 45.5q0 29 18 47.5t47 18.5q28 0 46.5-19t18.5-47q0-27-18.5-45t-46.5-18zm286 0q-29 0-47 17.5t-18 45.5q0 29 18 47.5t47 18.5q28 0 46.5-19t18.5-47q0-27-18.5-45t-46.5-18zM486-25q-268 0-347 166-29 59-29 137 0 112 59 185.5T337 564q42 10 101 15 4 0 104 7 114 9 352 23l15 1v67q0 166-91.5 246T560 1003q-163 0-254-75.5T210 693l-65-1q4 183 114.5 275t300.5 92q194 0 304.5-96.5T975 675V0h-66v201l-30-45Q758-25 486-25zm0 55q129 0 222 46 96 48 148.5 132T909 400v158l-17-1-245-17q-88-5-164-12-117-11-165-31-140-63-140-219 0-69 26-119t71.5-77T373 42.5 486 30z"/><glyph glyph-name="aring" unicode="å" horiz-adv-x="1085" vert-adv-y="2275" d="M545 1329q-89 0-149 59.5T336 1537q0 41 20 89 23 54 75.5 86t113.5 32q40 0 91-21 51-22 82.5-74.5T750 1537q0-41-19-91-20-53-73-85t-113-32zm0 49q67 0 108.5 45.5T695 1537q0 67-41.5 112.5T545 1695q-68 0-109.5-45T394 1537t41.5-113.5T545 1378zM486-25q-268 0-347 166-29 59-29 137 0 112 59 185.5T337 564q42 10 101 15 4 0 104 7 114 9 352 23l15 1v67q0 166-91.5 246T560 1003q-163 0-254-75.5T210 693l-65-1q4 183 114.5 275t300.5 92q194 0 304.5-96.5T975 675V0h-66v201l-30-45Q758-25 486-25zm0 55q129 0 222 46 96 48 148.5 132T909 400v158l-17-1-245-17q-88-5-164-12-117-11-165-31-140-63-140-219 0-69 26-119t71.5-77T373 42.5 486 30z"/><glyph glyph-name="ae" unicode="æ" horiz-adv-x="2310" vert-adv-y="2275" d="M486-25q-268 0-347 166-29 61-29 137 0 112 58.5 186T336 564q43 10 102 15 15 1 104 7 114 9 352 23l15 1v67q0 166-91.5 246T560 1003q-163 0-254-75.5T210 693l-65-1q5 183 115 275t300 92q260 0 364-169 18-29 32-73l10-37 20 33q69 117 184.5 181.5T1423 1059q147 0 266-72.5T1873.5 790t65.5-273v-12l-964 1v-17q5-127 61-230.5t157.5-165T1423 32q142 0 251 75.5T1834 315l63-19q-58-148-186-234.5T1423-25q-127 0-237.5 56T1005 190l-30 45V0h-66v201l-30-45Q758-25 486-25zm491 607-2-19h894l-2 19q-18 183-140.5 301T1423 1001q-183 0-303-117T977 582zM486 30q129 0 222 46 96 48 148.5 132T909 400q0 21-.5 44.5t-1.5 52-1 44.5v17l-17-1-244-17q-92-5-163-12-118-11-164-31-140-63-140-219 0-69 26-119t71.5-77T373 42.5 486 30z"/><glyph glyph-name="ccedilla" unicode="ç" horiz-adv-x="1200" vert-adv-y="2275" d="M569-499q-77 0-129 40l26 42q46-33 107-33 59 0 99 34t40 95q0 60-37 93t-96 33q-67 0-106-42l-32 18 81 201-19 4Q374 16 282.5 102T145 317q-35 99-35 200t35 200q56 158 179.5 250t286.5 92q176 0 303-104.5T1090 677h-69q-51 182-191 263-103 61-219 61-114 0-219-61-104-61-159-178t-55-245 55-245T392 94q105-61 219-61 116 0 219 61 140 81 191 263h69q-51-182-190.5-288.5T576-23h-12l-64-160 39 20q21 11 59 11 75 0 123.5-47T770-321q0-81-58-129.5T569-499z"/><glyph glyph-name="egrave" unicode="è" horiz-adv-x="1253" vert-adv-y="2275" d="m601 1653 129-326h-59l-146 326h76zM626-25q-147 0-266 72.5T175.5 244 110 517t65.5 273T360 986.5t266 72.5q148 0 267-72.5T1077.5 790t65.5-273v-12l-965 1 1-17q7-195 131-326T626 32q142 0 251.5 75.5T1038 315l62-19q-58-148-186-234.5T626-25zM181 582l-2-19h894l-2 19q-19 183-141.5 301T626 1001q-183 0-302.5-117T181 582z"/><glyph glyph-name="eacute" unicode="é" horiz-adv-x="1253" vert-adv-y="2275" d="m729 1653-147-326h-58l129 326h76zM626-25q-147 0-266 72.5T175.5 244 110 517t65.5 273T360 986.5t266 72.5q148 0 267-72.5T1077.5 790t65.5-273v-12l-965 1 1-17q7-195 131-326T626 32q142 0 251.5 75.5T1038 315l62-19q-58-148-186-234.5T626-25zM181 582l-2-19h894l-2 19q-19 183-141.5 301T626 1001q-183 0-302.5-117T181 582z"/><glyph glyph-name="ecircumflex" unicode="ê" horiz-adv-x="1253" vert-adv-y="2275" d="m626 1544 248-129v-68l-248 127-247-127v68zm0-1569q-147 0-266 72.5T175.5 244 110 517t65.5 273T360 986.5t266 72.5q148 0 267-72.5T1077.5 790t65.5-273v-12l-965 1 1-17q7-195 131-326T626 32q142 0 251.5 75.5T1038 315l62-19q-58-148-186-234.5T626-25zM181 582l-2-19h894l-2 19q-19 183-141.5 301T626 1001q-183 0-302.5-117T181 582z"/><glyph glyph-name="edieresis" unicode="ë" horiz-adv-x="1253" vert-adv-y="2275" d="M484 1353q-29 0-47 17.5t-18 45.5q0 29 18 47.5t47 18.5q28 0 46.5-19t18.5-47q0-27-18.5-45t-46.5-18zm286 0q-29 0-47.5 17.5T704 1416q0 29 18.5 47.5T770 1482q27 0 46-19t19-47q0-27-18.5-45t-46.5-18zM626-25q-147 0-266 72.5T175.5 244 110 517t65.5 273T360 986.5t266 72.5q148 0 267-72.5T1077.5 790t65.5-273v-12l-965 1 1-17q7-195 131-326T626 32q142 0 251.5 75.5T1038 315l62-19q-58-148-186-234.5T626-25zM181 582l-2-19h894l-2 19q-19 183-141.5 301T626 1001q-183 0-302.5-117T181 582z"/><glyph glyph-name="igrave" unicode="ì" horiz-adv-x="334" vert-adv-y="2275" d="m141 1653 129-326h-59L65 1653h76zm57-594V0h-65v1059h65z"/><glyph glyph-name="iacute" unicode="í" horiz-adv-x="334" vert-adv-y="2275" d="m270 1653-146-326H65l129 326h76zm-70-594V0h-66v1059h66z"/><glyph glyph-name="icircumflex" unicode="î" horiz-adv-x="354" vert-adv-y="2275" d="m425 1347-248 127-248-127v68l248 129 248-129v-68zm-216-288V0h-66v1059h66z"/><glyph glyph-name="idieresis" unicode="ï" horiz-adv-x="353" vert-adv-y="2275" d="M34 1353q-29 0-47.5 17.5T-32 1416q0 29 18.5 47.5T34 1482q28 0 46.5-19t18.5-47q0-27-18.5-45T34 1353zm286 0q-29 0-47 17.5t-18 45.5q0 29 18 47.5t47 18.5q28 0 46.5-19t18.5-47q0-27-18.5-45t-46.5-18zm-112-294V0h-65v1059h65z"/><glyph glyph-name="ntilde" unicode="ñ" vert-adv-y="2275" d="M657 1428q-52 0-134 41-65 28-67 29-37 15-68 15-87 0-107-79h-62q14 66 59 103t114 37q49 0 135-41 44-21 66-29 37-15 68-15 85 0 107 79h62q-14-66-59-103t-114-37zM176 678V0h-66v1059h66V899l30 46q39 59 131.5 86.5T524 1059q211 0 313-108 102-109 102-280V0h-65v641q0 362-350 362-181 0-266-96-38-43-60-106.5T176 678z"/><glyph glyph-name="ograve" unicode="ò" horiz-adv-x="1222" vert-adv-y="2275" d="m586 1653 129-326h-59l-146 326h76zM611-25q-163 0-286.5 91.5T145 316q-35 100-35 201t35 200q56 158 179.5 250t286.5 92 287-92 179-250q35-99 35-200t-35-201q-55-158-179-249.5T611-25zm0 57q115 0 219 62 105 62 160 178t55 245q0 128-55.5 244.5T830 940q-103 61-219 61t-219-61q-104-61-159-177.5T178 517q0-130 54.5-246T392 94q105-62 219-62z"/><glyph glyph-name="oacute" unicode="ó" horiz-adv-x="1222" vert-adv-y="2275" d="m714 1653-147-326h-59l130 326h76zM611-25q-163 0-286.5 91.5T145 316q-35 100-35 201t35 200q56 158 179.5 250t286.5 92 287-92 179-250q35-99 35-200t-35-201q-55-158-179-249.5T611-25zm0 57q115 0 219 62 105 62 160 178t55 245q0 128-55.5 244.5T830 940q-103 61-219 61t-219-61q-104-61-159-177.5T178 517q0-130 54.5-246T392 94q105-62 219-62z"/><glyph glyph-name="ocircumflex" unicode="ô" horiz-adv-x="1222" vert-adv-y="2275" d="m611 1544 248-129v-68l-248 127-247-127v68zm0-1569q-163 0-286.5 91.5T145 316q-35 100-35 201t35 200q56 158 179.5 250t286.5 92 287-92 179-250q35-99 35-200t-35-201q-55-158-179-249.5T611-25zm0 57q115 0 219 62 105 62 160 178t55 245q0 128-55.5 244.5T830 940q-103 61-219 61t-219-61q-104-61-159-177.5T178 517q0-130 54.5-246T392 94q105-62 219-62z"/><glyph glyph-name="otilde" unicode="õ" horiz-adv-x="1222" vert-adv-y="2275" d="M743 1428q-50 0-134 41-55 25-66 29-37 15-68 15-87 0-107-79h-62q14 66 59 103t114 37q49 0 135-41 36-18 65-29 37-15 68-15 45 0 71 19t37 60h62q-14-66-59.5-103T743 1428zM611-25q-163 0-286.5 91.5T145 316q-35 100-35 201t35 200q56 158 179.5 250t286.5 92 287-92 179-250q35-99 35-200t-35-201q-55-158-179-249.5T611-25zm0 57q115 0 219 62 105 62 160 178t55 245q0 128-55.5 244.5T830 940q-103 61-219 61t-219-61q-104-61-159-177.5T178 517q0-130 54.5-246T392 94q105-62 219-62z"/><glyph glyph-name="odieresis" unicode="ö" horiz-adv-x="1222" vert-adv-y="2275" d="M469 1353q-29 0-47 17.5t-18 45.5q0 29 18 47.5t47 18.5q28 0 46.5-19t18.5-47q0-27-18.5-45t-46.5-18zm286 0q-29 0-47.5 17.5T689 1416q0 29 18.5 47.5T755 1482q27 0 46-19t19-47q0-27-18.5-45t-46.5-18zM611-25q-163 0-286.5 91.5T145 316q-35 100-35 201t35 200q56 158 179.5 250t286.5 92 287-92 179-250q35-99 35-200t-35-201q-55-158-179-249.5T611-25zm0 57q115 0 219 62 105 62 160 178t55 245q0 128-55.5 244.5T830 940q-103 61-219 61t-219-61q-104-61-159-177.5T178 517q0-130 54.5-246T392 94q105-62 219-62z"/><glyph glyph-name="divide" unicode="÷" horiz-adv-x="1186" vert-adv-y="2275" d="M593 785q-30 0-50 19t-20 49q0 31 19.5 50.5T593 923q30 0 50-20t20-50q0-28-20.5-48T593 785zm523-237v-65H71v65h1045zM593 110q-30 0-50 19t-20 49q0 31 19.5 50.5T593 248q30 0 50-20t20-50q0-28-20.5-48T593 110z"/><glyph glyph-name="oslash" unicode="ø" horiz-adv-x="1222" vert-adv-y="2275" d="m481-9-81-256h-74l88 280-13 6Q265 86 187.5 222T110 517q0 101 35 200 56 158 179.5 250t286.5 92q57 0 112-12l14-4 85 268h74l-90-286 7-7q4-4 6-4 103-56 159-122 64-75 99-174.5t35-200.5q0-102-35-201-55-158-179-249.5T611-25q-66 0-115 12zM392 94l23-12 17-10 288 914-17 5q-43 10-92 10-116 0-219-61-104-61-159-177.5T178 517q0-128 55-246T392 94zm219-62q115 0 219 62 105 62 160 178t55 245-55 245-159 178l-26 14-18 11L499 48l17-5q49-11 95-11z"/><glyph glyph-name="ugrave" unicode="ù" vert-adv-y="2275" d="m499 1653 129-326h-59l-146 326h76zM524 0Q313 0 211 108 110 216 110 388v671h65V417q0-362 349-362 181 0 267 96 38 43 60 106.5T873 381v678h66V0h-66v160l-30-46q-39-59-131.5-86.5T524 0z"/><glyph glyph-name="uacute" unicode="ú" vert-adv-y="2275" d="m627 1653-147-326h-58l129 326h76zM524 0Q313 0 211 108 110 216 110 388v671h65V417q0-362 349-362 181 0 267 96 38 43 60 106.5T873 381v678h66V0h-66v160l-30-46q-39-59-131.5-86.5T524 0z"/><glyph glyph-name="ucircumflex" unicode="û" vert-adv-y="2275" d="m524 1544 248-129v-68l-248 127-246-127v68zM524 0Q313 0 211 108 110 216 110 388v671h65V417q0-362 349-362 181 0 267 96 38 43 60 106.5T873 381v678h66V0h-66v160l-30-46q-39-59-131.5-86.5T524 0z"/><glyph glyph-name="udieresis" unicode="ü" vert-adv-y="2275" d="M382 1353q-29 0-47 17.5t-18 45.5q0 29 18 47.5t47 18.5q28 0 46.5-19t18.5-47q0-27-18.5-45t-46.5-18zm286 0q-29 0-47 17.5t-18 45.5q0 29 18 47.5t47 18.5q27 0 46-19t19-47q0-27-18.5-45t-46.5-18zM524 0Q313 0 211 108 110 216 110 388v671h65V417q0-362 349-362 181 0 267 96 38 43 60 106.5T873 381v678h66V0h-66v160l-30-46q-39-59-131.5-86.5T524 0z"/><glyph glyph-name="yacute" unicode="ý" horiz-adv-x="1202" vert-adv-y="2275" d="m703 1653-146-326h-59l129 326h76zm389-592L453-463h-70L568-17 110 1061h74L600 62l415 999h77z"/><glyph glyph-name="ydieresis" unicode="ÿ" horiz-adv-x="1202" vert-adv-y="2275" d="M458 1353q-29 0-47 17.5t-18 45.5q0 29 18 47.5t47 18.5q28 0 47-19t19-47q0-27-19-45t-47-18zm286 0q-29 0-47 17.5t-18 45.5q0 29 18 47.5t47 18.5q28 0 46.5-19t18.5-47q0-27-18.5-45t-46.5-18zm348-292L453-463h-70L568-17 110 1061h74L600 62l415 999h77z"/><glyph glyph-name="Amacron" unicode="Ā" horiz-adv-x="1546" vert-adv-y="2275" d="M1075 1835v-60H472v60h603zM362 425 186 0h-76l618 1469h91L1436 0h-79l-176 425H362zm790 66-381 916-381-916h762z"/><glyph glyph-name="amacron" unicode="ā" horiz-adv-x="1085" vert-adv-y="2275" d="M844 1424v-59H241v59h603zM486-25q-268 0-347 166-29 59-29 137 0 112 59 185.5T337 564q42 10 101 15 4 0 104 7 114 9 352 23l15 1v67q0 166-91.5 246T560 1003q-163 0-254-75.5T210 693l-65-1q4 183 114.5 275t300.5 92q194 0 304.5-96.5T975 675V0h-66v201l-30-45Q758-25 486-25zm0 55q129 0 222 46 96 48 148.5 132T909 400v158l-17-1-245-17q-88-5-164-12-117-11-165-31-140-63-140-219 0-69 26-119t71.5-77T373 42.5 486 30z"/><glyph glyph-name="Abreve" unicode="Ă" horiz-adv-x="1546" vert-adv-y="2275" d="M773 1765q-109 0-177.5 58T522 1984h60q5-79 57.5-122t133.5-43 134 43 59 122h59q-5-104-73.5-161.5T773 1765zM362 425 186 0h-76l618 1469h91L1436 0h-79l-176 425H362zm790 66-381 916-381-916h762z"/><glyph glyph-name="abreve" unicode="ă" horiz-adv-x="1085" vert-adv-y="2275" d="M543 1355q-109 0-178 57.5T291 1574h60q5-79 58-122t134-43q80 0 133.5 43t58.5 122h59q-5-104-73.5-161.5T543 1355zM486-25q-268 0-347 166-29 59-29 137 0 112 59 185.5T337 564q42 10 101 15 4 0 104 7 114 9 352 23l15 1v67q0 166-91.5 246T560 1003q-163 0-254-75.5T210 693l-65-1q4 183 114.5 275t300.5 92q194 0 304.5-96.5T975 675V0h-66v201l-30-45Q758-25 486-25zm0 55q129 0 222 46 96 48 148.5 132T909 400v158l-17-1-245-17q-88-5-164-12-117-11-165-31-140-63-140-219 0-69 26-119t71.5-77T373 42.5 486 30z"/><glyph glyph-name="Cacute" unicode="Ć" horiz-adv-x="1613" vert-adv-y="2275" d="m911 2064-147-326h-59l129 326h77zM825-32q-133 0-255.5 43.5T352 140q-105 96-157 209t-68 213q-17 97-17 173 0 116 34 246 33 130 114 243.5T449 1400q180 101 376 101 251 0 434-138t244-379h-73q-54 211-219.5 333T825 1439q-147 0-269.5-56t-203-152T228 1007t-44-272 44-272 124.5-224.5T555 86t270-56q220 0 385.5 122T1430 485h73q-61-241-244-379T825-32z"/><glyph glyph-name="cacute" unicode="ć" horiz-adv-x="1200" vert-adv-y="2275" d="m705 1653-147-326h-59l129 326h77zM611-24q-163 0-286.5 91.5T145 317q-35 99-35 200t35 200q56 158 179.5 250t286.5 92q176 0 303-104.5T1090 677h-69q-50 181-191 263-103 61-219 61t-219-61q-104-61-159-177.5T178 517t55-245.5T392 94q103-61 219-61t219 61q141 82 191 263h69q-49-173-176-277T611-24z"/><glyph glyph-name="Ccircumflex" unicode="Ĉ" horiz-adv-x="1613" vert-adv-y="2275" d="m808 1955 248-129v-69l-248 127-247-127v69zM825-32q-133 0-255.5 43.5T352 140q-105 96-157 209t-68 213q-17 97-17 173 0 116 34 246 33 130 114 243.5T449 1400q180 101 376 101 251 0 434-138t244-379h-73q-54 211-219.5 333T825 1439q-147 0-269.5-56t-203-152T228 1007t-44-272 44-272 124.5-224.5T555 86t270-56q220 0 385.5 122T1430 485h73q-61-241-244-379T825-32z"/><glyph glyph-name="ccircumflex" unicode="ĉ" horiz-adv-x="1200" vert-adv-y="2275" d="m602 1544 248-129v-68l-248 127-247-127v68zm9-1568q-163 0-286.5 91.5T145 317q-35 99-35 200t35 200q56 158 179.5 250t286.5 92q176 0 303-104.5T1090 677h-69q-50 181-191 263-103 61-219 61t-219-61q-104-61-159-177.5T178 517t55-245.5T392 94q103-61 219-61t219 61q141 82 191 263h69q-49-173-176-277T611-24z"/><glyph glyph-name="Cdotaccent" unicode="Ċ" horiz-adv-x="1613" vert-adv-y="2275" d="M809 1832q-29 0-47 18t-18 46q0 29 18.5 47.5T809 1962t46.5-19 18.5-47-18.5-46-46.5-18zM825-32q-133 0-255.5 43.5T352 140q-105 96-157 209t-68 213q-17 97-17 173 0 116 34 246 33 130 114 243.5T449 1400q180 101 376 101 251 0 434-138t244-379h-73q-54 211-219.5 333T825 1439q-147 0-269.5-56t-203-152T228 1007t-44-272 44-272 124.5-224.5T555 86t270-56q220 0 385.5 122T1430 485h73q-61-241-244-379T825-32z"/><glyph glyph-name="cdotaccent" unicode="ċ" horiz-adv-x="1200" vert-adv-y="2275" d="M603 1422q-29 0-47 18t-18 46 18 46.5 47 18.5q28 0 46.5-18.5T668 1486t-18.5-46-46.5-18zm8-1446q-163 0-286.5 91.5T145 317q-35 99-35 200t35 200q56 158 179.5 250t286.5 92q176 0 303-104.5T1090 677h-69q-50 181-191 263-103 61-219 61t-219-61q-104-61-159-177.5T178 517t55-245.5T392 94q103-61 219-61t219 61q141 82 191 263h69q-49-173-176-277T611-24z"/><glyph glyph-name="Ccaron" unicode="Č" horiz-adv-x="1613" vert-adv-y="2275" d="M1056 1969v-69l-248-129-247 129v69l247-127zM825-32q-133 0-255.5 43.5T352 140q-105 96-157 209t-68 213q-17 97-17 173 0 116 34 246 33 130 114 243.5T449 1400q180 101 376 101 251 0 434-138t244-379h-73q-54 211-219.5 333T825 1439q-147 0-269.5-56t-203-152T228 1007t-44-272 44-272 124.5-224.5T555 86t270-56q220 0 385.5 122T1430 485h73q-61-241-244-379T825-32z"/><glyph glyph-name="ccaron" unicode="č" horiz-adv-x="1200" vert-adv-y="2275" d="M850 1558v-68l-248-129-247 129v68l247-127zM611-24q-163 0-286.5 91.5T145 317q-35 99-35 200t35 200q56 158 179.5 250t286.5 92q176 0 303-104.5T1090 677h-69q-50 181-191 263-103 61-219 61t-219-61q-104-61-159-177.5T178 517t55-245.5T392 94q103-61 219-61t219 61q141 82 191 263h69q-49-173-176-277T611-24z"/><glyph glyph-name="Emacron" unicode="Ē" horiz-adv-x="1161" vert-adv-y="2275" d="M882 1835v-60H280v60h602zM1051 66V0H110v1469h941v-66H179V779h734v-66H179V66h872z"/><glyph glyph-name="emacron" unicode="ē" horiz-adv-x="1253" vert-adv-y="2275" d="M928 1424v-59H325v59h603zM626-25q-147 0-266 72.5T175.5 244 110 517t65.5 273T360 986.5t266 72.5q148 0 267-72.5T1077.5 790t65.5-273v-12l-965 1 1-17q7-195 131-326T626 32q142 0 251.5 75.5T1038 315l62-19q-58-148-186-234.5T626-25zM181 582l-2-19h894l-2 19q-19 183-141.5 301T626 1001q-183 0-302.5-117T181 582z"/><glyph glyph-name="Ebreve" unicode="Ĕ" horiz-adv-x="1161" vert-adv-y="2275" d="M581 1765q-109 0-177.5 58T329 1984h60q6-79 58.5-122t133.5-43 134 43 59 122h58q-5-104-73.5-161.5T581 1765zM1051 66V0H110v1469h941v-66H179V779h734v-66H179V66h872z"/><glyph glyph-name="ebreve" unicode="ĕ" horiz-adv-x="1253" vert-adv-y="2275" d="M626 1355q-109 0-177.5 57.5T375 1574h60q5-79 57.5-122t133.5-43 134 43 59 122h59q-5-104-73.5-161.5T626 1355zm0-1380q-147 0-266 72.5T175.5 244 110 517t65.5 273T360 986.5t266 72.5q148 0 267-72.5T1077.5 790t65.5-273v-12l-965 1 1-17q7-195 131-326T626 32q142 0 251.5 75.5T1038 315l62-19q-58-148-186-234.5T626-25zM181 582l-2-19h894l-2 19q-19 183-141.5 301T626 1001q-183 0-302.5-117T181 582z"/><glyph glyph-name="Edotaccent" unicode="Ė" horiz-adv-x="1161" vert-adv-y="2275" d="M581 1832q-29 0-47 18t-18 46q0 29 18.5 47.5T581 1962t46.5-19 18.5-47-18.5-46-46.5-18zM1051 66V0H110v1469h941v-66H179V779h734v-66H179V66h872z"/><glyph glyph-name="edotaccent" unicode="ė" horiz-adv-x="1253" vert-adv-y="2275" d="M626 1422q-29 0-47 18t-18 46 18.5 46.5T626 1551t47-18.5 19-46.5-19-46-47-18zm0-1447q-147 0-266 72.5T175.5 244 110 517t65.5 273T360 986.5t266 72.5q148 0 267-72.5T1077.5 790t65.5-273v-12l-965 1 1-17q7-195 131-326T626 32q142 0 251.5 75.5T1038 315l62-19q-58-148-186-234.5T626-25zM181 582l-2-19h894l-2 19q-19 183-141.5 301T626 1001q-183 0-302.5-117T181 582z"/><glyph glyph-name="Ecaron" unicode="Ě" horiz-adv-x="1161" vert-adv-y="2275" d="M828 1969v-69l-248-129-247 129v69l247-127zM1051 66V0H110v1469h941v-66H179V779h734v-66H179V66h872z"/><glyph glyph-name="ecaron" unicode="ě" horiz-adv-x="1253" vert-adv-y="2275" d="M874 1558v-68l-248-129-247 129v68l247-127zM626-25q-147 0-266 72.5T175.5 244 110 517t65.5 273T360 986.5t266 72.5q148 0 267-72.5T1077.5 790t65.5-273v-12l-965 1 1-17q7-195 131-326T626 32q142 0 251.5 75.5T1038 315l62-19q-58-148-186-234.5T626-25zM181 582l-2-19h894l-2 19q-19 183-141.5 301T626 1001q-183 0-302.5-117T181 582z"/><glyph glyph-name="Gcircumflex" unicode="Ĝ" horiz-adv-x="1613" vert-adv-y="2275" d="m806 1955 248-129v-69l-248 127-247-127v69zM825-32q-133 0-255.5 43.5T352 140q-103 93-157 209-52 113-68 213-17 97-17 173 0 116 34 246 33 130 114 243.5T449 1400q180 101 376 101 247 0 427.5-127.5T1496 1013h-73q-59 204-220.5 315T825 1439q-147 0-269.5-56t-203-152T228 1007t-44-272 44-272 124.5-224.5T555 86t270-56q126 0 239 46 182 73 280 234.5t98 364.5v17H844v66h659V0h-61v394l-31-67q-81-174-235.5-266.5T825-32z"/><glyph glyph-name="gcircumflex" unicode="ĝ" horiz-adv-x="1220" vert-adv-y="2275" d="m610 1544 248-129v-68l-248 127-247-127v68zm26-2007q-103 0-201.5 34T274-328q-67 72-96 155h73q17-47 63-102 54-65 144-98t182-33q183 0 294.5 113.5T1046 5v229l-30-44Q866-25 611-25q-163 0-286.5 91.5T145 316q-35 99-35 201 0 101 35 200 56 158 179.5 250t286.5 92q254 0 405-216l30-44v234h64V40q0-230-124.5-366.5T636-463zM611 32q115 0 219 62 105 62 160 178t55 245q0 128-55.5 244.5T830 940q-103 61-219 61t-219-61q-104-61-159-177.5T178 517q0-130 54.5-246T392 94q105-62 219-62z"/><glyph glyph-name="Gbreve" unicode="Ğ" horiz-adv-x="1613" vert-adv-y="2275" d="M807 1765q-109 0-177.5 58T556 1984h59q6-79 58.5-122t133.5-43 134 43 59 122h59q-6-104-74.5-161.5T807 1765zM825-32q-133 0-255.5 43.5T352 140q-103 93-157 209-52 113-68 213-17 97-17 173 0 116 34 246 33 130 114 243.5T449 1400q180 101 376 101 247 0 427.5-127.5T1496 1013h-73q-59 204-220.5 315T825 1439q-147 0-269.5-56t-203-152T228 1007t-44-272 44-272 124.5-224.5T555 86t270-56q126 0 239 46 182 73 280 234.5t98 364.5v17H844v66h659V0h-61v394l-31-67q-81-174-235.5-266.5T825-32z"/><glyph glyph-name="gbreve" unicode="ğ" horiz-adv-x="1220" vert-adv-y="2275" d="M610 1355q-109 0-177.5 57.5T359 1574h60q5-79 57.5-122t133.5-43 134 43 59 122h59q-6-104-74.5-161.5T610 1355zm26-1818q-103 0-201.5 34T274-328q-67 72-96 155h73q17-47 63-102 54-65 144-98t182-33q183 0 294.5 113.5T1046 5v229l-30-44Q866-25 611-25q-163 0-286.5 91.5T145 316q-35 99-35 201 0 101 35 200 56 158 179.5 250t286.5 92q254 0 405-216l30-44v234h64V40q0-230-124.5-366.5T636-463zM611 32q115 0 219 62 105 62 160 178t55 245q0 128-55.5 244.5T830 940q-103 61-219 61t-219-61q-104-61-159-177.5T178 517q0-130 54.5-246T392 94q105-62 219-62z"/><glyph glyph-name="Gdotaccent" unicode="Ġ" horiz-adv-x="1613" vert-adv-y="2275" d="M807 1832q-29 0-47 18t-18 46q0 29 18.5 47.5T807 1962t46.5-19 18.5-47-18.5-46-46.5-18zM825-32q-133 0-255.5 43.5T352 140q-103 93-157 209-52 113-68 213-17 97-17 173 0 116 34 246 33 130 114 243.5T449 1400q180 101 376 101 247 0 427.5-127.5T1496 1013h-73q-59 204-220.5 315T825 1439q-147 0-269.5-56t-203-152T228 1007t-44-272 44-272 124.5-224.5T555 86t270-56q126 0 239 46 182 73 280 234.5t98 364.5v17H844v66h659V0h-61v394l-31-67q-81-174-235.5-266.5T825-32z"/><glyph glyph-name="gdotaccent" unicode="ġ" horiz-adv-x="1220" vert-adv-y="2275" d="M610 1422q-29 0-47 18t-18 46 18.5 46.5T610 1551t46.5-18.5T675 1486t-18.5-46-46.5-18zm26-1885q-103 0-201.5 34T274-328q-67 72-96 155h73q17-47 63-102 54-65 144-98t182-33q183 0 294.5 113.5T1046 5v229l-30-44Q866-25 611-25q-163 0-286.5 91.5T145 316q-35 99-35 201 0 101 35 200 56 158 179.5 250t286.5 92q254 0 405-216l30-44v234h64V40q0-230-124.5-366.5T636-463zM611 32q115 0 219 62 105 62 160 178t55 245q0 128-55.5 244.5T830 940q-103 61-219 61t-219-61q-104-61-159-177.5T178 517q0-130 54.5-246T392 94q105-62 219-62z"/><glyph glyph-name="Itilde" unicode="Ĩ" horiz-adv-x="621" vert-adv-y="2275" d="M443 1838q-48 0-134 41-49 24-67 30-38 14-68 14-86 0-107-78H5q14 66 59 102.5t114 36.5q51 0 135-40 52-25 66-30 39-14 68-14 85 0 107 78h62q-14-66-59-103t-114-37zM513 59V0H108v59h168v1351H108v59h405v-59H345V59h168z"/><glyph glyph-name="itilde" unicode="ĩ" horiz-adv-x="349" vert-adv-y="2275" d="M307 1428q-52 0-134 41-65 28-67 29-37 15-68 15-87 0-107-79h-62q14 66 59 103t114 37q49 0 135-41 44-21 66-29 37-15 68-15 85 0 107 79h62q-14-66-59-103t-114-37zm-101-369V0h-65v1059h65z"/><glyph glyph-name="Imacron" unicode="Ī" horiz-adv-x="627" vert-adv-y="2275" d="M615 1835v-60H12v60h603zM516 59V0H111v59h167v1351H111v59h405v-59H348V59h168z"/><glyph glyph-name="imacron" unicode="ī" horiz-adv-x="355" vert-adv-y="2275" d="M479 1424v-59h-603v59h603zm-270-365V0h-66v1059h66z"/><glyph glyph-name="dotlessi" unicode="ı" horiz-adv-x="350" vert-adv-y="1800" d="M207 1059V0h-66v1059h66z"/><glyph glyph-name="Nacute" unicode="Ń" horiz-adv-x="1344" vert-adv-y="2275" d="m774 2064-146-326h-59l129 326h76zm-595-687V0h-69v1469h88L1165 90v1379h69V0h-88z"/><glyph glyph-name="nacute" unicode="ń" vert-adv-y="2275" d="m627 1653-147-326h-58l129 326h76zM176 678V0h-66v1059h66V899l30 46q39 59 131.5 86.5T524 1059q211 0 313-108 102-109 102-280V0h-65v641q0 362-350 362-181 0-266-96-38-43-60-106.5T176 678z"/><glyph glyph-name="Ncaron" unicode="Ň" horiz-adv-x="1344" vert-adv-y="2275" d="M920 1969v-69l-248-129-247 129v69l247-127zm-741-592V0h-69v1469h88L1165 90v1379h69V0h-88z"/><glyph glyph-name="ncaron" unicode="ň" vert-adv-y="2275" d="M772 1558v-68l-248-129-246 129v68l246-127zM176 678V0h-66v1059h66V899l30 46q39 59 131.5 86.5T524 1059q211 0 313-108 102-109 102-280V0h-65v641q0 362-350 362-181 0-266-96-38-43-60-106.5T176 678z"/><glyph glyph-name="Omacron" unicode="Ō" horiz-adv-x="1697" vert-adv-y="2275" d="M1150 1835v-60H547v60h603zM848-32q-161 0-299 59T315 188 164.5 432 110 735q0 216 93 390.5t262 275T848 1501q215 0 384.5-100.5t262-275T1587 735q0-162-54.5-303.5T1382 188 1147.5 27 848-32zm0 62q148 0 273.5 55T1332 235t133 224.5 48 275.5q0 196-81.5 355.5t-234.5 254-349 94.5-348.5-94.5-234-254.5T184 735t81-355 234-255 349-95z"/><glyph glyph-name="omacron" unicode="ō" horiz-adv-x="1222" vert-adv-y="2275" d="M913 1424v-59H310v59h603zM611-25q-163 0-286.5 91.5T145 316q-35 100-35 201t35 200q56 158 179.5 250t286.5 92 287-92 179-250q35-99 35-200t-35-201q-55-158-179-249.5T611-25zm0 57q115 0 219 62 105 62 160 178t55 245q0 128-55.5 244.5T830 940q-103 61-219 61t-219-61q-104-61-159-177.5T178 517q0-130 54.5-246T392 94q105-62 219-62z"/><glyph glyph-name="Obreve" unicode="Ŏ" horiz-adv-x="1697" vert-adv-y="2275" d="M848 1765q-109 0-177.5 58T597 1984h60q5-79 57.5-122t133.5-43 134.5 43 58.5 122h59q-5-104-73.5-161.5T848 1765zm0-1797q-161 0-299 59T315 188 164.5 432 110 735q0 216 93 390.5t262 275T848 1501q215 0 384.5-100.5t262-275T1587 735q0-162-54.5-303.5T1382 188 1147.5 27 848-32zm0 62q148 0 273.5 55T1332 235t133 224.5 48 275.5q0 196-81.5 355.5t-234.5 254-349 94.5-348.5-94.5-234-254.5T184 735t81-355 234-255 349-95z"/><glyph glyph-name="obreve" unicode="ŏ" horiz-adv-x="1222" vert-adv-y="2275" d="M611 1355q-109 0-177.5 57.5T360 1574h60q5-79 57.5-122t133.5-43 134 43 59 122h59q-6-104-74.5-161.5T611 1355zm0-1380q-163 0-286.5 91.5T145 316q-35 100-35 201t35 200q56 158 179.5 250t286.5 92 287-92 179-250q35-99 35-200t-35-201q-55-158-179-249.5T611-25zm0 57q115 0 219 62 105 62 160 178t55 245q0 128-55.5 244.5T830 940q-103 61-219 61t-219-61q-104-61-159-177.5T178 517q0-130 54.5-246T392 94q105-62 219-62z"/><glyph glyph-name="Ohungarumlaut" unicode="Ő" horiz-adv-x="1697" vert-adv-y="2275" d="m810 2104-161-327h-53l127 327h87zm289 0-160-327h-53l127 327h86zM848-32q-161 0-299 59T315 188 164.5 432 110 735q0 216 93 390.5t262 275T848 1501q215 0 384.5-100.5t262-275T1587 735q0-162-54.5-303.5T1382 188 1147.5 27 848-32zm0 62q148 0 273.5 55T1332 235t133 224.5 48 275.5q0 196-81.5 355.5t-234.5 254-349 94.5-348.5-94.5-234-254.5T184 735t81-355 234-255 349-95z"/><glyph glyph-name="ohungarumlaut" unicode="ő" horiz-adv-x="1222" vert-adv-y="2275" d="m572 1693-160-326h-53l127 326h86zm290 0-160-326h-53l127 326h86zM611-25q-163 0-286.5 91.5T145 316q-35 100-35 201t35 200q56 158 179.5 250t286.5 92 287-92 179-250q35-99 35-200t-35-201q-55-158-179-249.5T611-25zm0 57q115 0 219 62 105 62 160 178t55 245q0 128-55.5 244.5T830 940q-103 61-219 61t-219-61q-104-61-159-177.5T178 517q0-130 54.5-246T392 94q105-62 219-62z"/><glyph glyph-name="OE" unicode="Œ" horiz-adv-x="2860" vert-adv-y="2275" d="M848-32q-161 0-299 59T315 188 164.5 432 110 735q0 216 93 390.5t262 275T848 1501q204 0 370-92t265-267l31-54v381h941v-66h-872l2-624h732v-66h-731l-3-647h872V0h-941v381l-31-54q-98-174-265-266.5T848-32zm0 62q148 0 273.5 55T1332 235t133 224.5 48 275.5q0 196-81.5 355.5t-234.5 254-349 94.5-348.5-94.5-234-254.5T184 735t81-355 234-255 349-95z"/><glyph glyph-name="oe" unicode="œ" horiz-adv-x="2447" vert-adv-y="2275" d="M871-25q-163 0-286.5 91.5T405 316q-35 99-35 201 0 101 35 200 56 158 179.5 250t286.5 92q152 0 272-82t180-224l15-36 16 36q60 142 186 224t281 82q147 0 266-72.5T2271.5 790t65.5-273v-12l-964 1v-17q5-127 61-230.5t157.5-165T1821 32q142 0 251 75.5T2233 315l62-19q-58-148-186-234.5T1821-25q-155 0-280.5 81T1354 280l-16 36-15-36q-59-142-179.5-223.5T871-25zm0 57q115 0 219 62 105 62 160 178t55 245q0 128-55.5 244.5T1090 940q-103 61-219 61t-219-61q-104-61-159-177.5T438 517q0-130 54.5-246T652 94q105-62 219-62zm505 550-3-19h894l-2 19q-18 183-140.5 301T1821 1001q-183 0-303-117.5T1376 582z"/><glyph glyph-name="Racute" unicode="Ŕ" horiz-adv-x="1249" vert-adv-y="2275" d="m727 2064-147-326h-58l129 326h76zM179 713V0h-69v1469h559q239 0 355-102 115-101 115-277t-107-268-291-106l-26-2L1119 0h-88L640 713H179zm498 690H179V779h498q392 0 392 312 0 72-21.5 127t-57.5 89.5-88 56.5-106.5 30.5T677 1403z"/><glyph glyph-name="racute" unicode="ŕ" horiz-adv-x="618" vert-adv-y="2275" d="m411 1653-147-326h-58l129 326h76zM176 678V0h-66v1059h66V899l30 46q37 56 124 83.5t178 29.5v-55q-171-6-250-96-38-43-60-106.5T176 678z"/><glyph glyph-name="Rcaron" unicode="Ř" horiz-adv-x="1249" vert-adv-y="2275" d="M872 1969v-69l-248-129-247 129v69l247-127zM179 713V0h-69v1469h559q239 0 355-102 115-101 115-277t-107-268-291-106l-26-2L1119 0h-88L640 713H179zm498 690H179V779h498q392 0 392 312 0 72-21.5 127t-57.5 89.5-88 56.5-106.5 30.5T677 1403z"/><glyph glyph-name="rcaron" unicode="ř" horiz-adv-x="619" vert-adv-y="2275" d="M557 1558v-68l-248-129-247 129v68l247-127zM176 678V0h-66v1059h66V899l31 46q37 56 123.5 83.5T508 1058v-55q-171-6-250-96-38-43-60-106.5T176 678z"/><glyph glyph-name="Sacute" unicode="Ś" horiz-adv-x="1283" vert-adv-y="2275" d="m744 2064-146-326h-59l129 326h76zM641-30q-95 0-188 26T291 73Q139 186 112 379h79q22-139 131-235Q441 37 641 37q155 0 262 54 87 43 138.5 113t51.5 163q0 118-81 199-51 51-193 92-65 18-209 49-159 33-207 47-119 34-184 88-44 36-78 97-31 57-31 157 0 78 32 144.5t85.5 112.5 122.5 78.5 143 47.5 148 15q96 0 189-25.5t162-76.5q75-56 120.5-134.5T1171 1086h-79q-22 137-131 235-121 107-320 107-154 0-261-54-87-43-138.5-113T190 1098q0-118 81-199 51-51 193-92 65-18 209-49 159-33 207-47 119-34 184-88 44-36 78-97 31-57 31-157 0-78-32-145t-85.5-112.5-123-78.5T789-15 641-30z"/><glyph glyph-name="sacute" unicode="ś" horiz-adv-x="957" vert-adv-y="2275" d="m581 1653-147-326h-59l129 326h77zM480-14q-232 0-329 173-31 57-39 123h66q17-113 101-175t201-62q83 0 162 30t113 96q26 50 26 96 0 120-114 174-42 21-111 36-40 9-124 25-60 12-99.5 22.5t-86 31-73 47.5-45 71T110 775q0 113 100 198 101 86 267 86 231 0 329-173 32-59 39-124h-66q-17 113-101 175t-201 62q-51 0-101-10.5t-100.5-40T202 873q-26-50-26-96 0-120 114-174 40-18 111-36 21-5 63-13t61-12q50-10 84-18.5t74.5-23 67-33.5 50-46 35-65 11.5-86q0-114-100-199T480-14z"/><glyph glyph-name="Scircumflex" unicode="Ŝ" horiz-adv-x="1283" vert-adv-y="2275" d="m642 1955 247-129v-69l-248 127-246-127v69zM641-30q-95 0-188 26T291 73Q139 186 112 379h79q22-139 131-235Q441 37 641 37q155 0 262 54 87 43 138.5 113t51.5 163q0 118-81 199-51 51-193 92-65 18-209 49-159 33-207 47-119 34-184 88-44 36-78 97-31 57-31 157 0 78 32 144.5t85.5 112.5 122.5 78.5 143 47.5 148 15q96 0 189-25.5t162-76.5q75-56 120.5-134.5T1171 1086h-79q-22 137-131 235-121 107-320 107-154 0-261-54-87-43-138.5-113T190 1098q0-118 81-199 51-51 193-92 65-18 209-49 159-33 207-47 119-34 184-88 44-36 78-97 31-57 31-157 0-78-32-145t-85.5-112.5-123-78.5T789-15 641-30z"/><glyph glyph-name="scircumflex" unicode="ŝ" horiz-adv-x="957" vert-adv-y="2275" d="m478 1544 248-129v-68l-248 127-247-127v68zm2-1558q-232 0-329 173-31 57-39 123h66q17-113 101-175t201-62q83 0 162 30t113 96q26 50 26 96 0 120-114 174-42 21-111 36-40 9-124 25-60 12-99.5 22.5t-86 31-73 47.5-45 71T110 775q0 113 100 198 101 86 267 86 231 0 329-173 32-59 39-124h-66q-17 113-101 175t-201 62q-51 0-101-10.5t-100.5-40T202 873q-26-50-26-96 0-120 114-174 40-18 111-36 21-5 63-13t61-12q50-10 84-18.5t74.5-23 67-33.5 50-46 35-65 11.5-86q0-114-100-199T480-14z"/><glyph glyph-name="Scedilla" unicode="Ş" horiz-adv-x="1283" vert-adv-y="2275" d="M608-499q-77 0-129 40l26 42q47-33 107-33 59 0 99 34t40 95q0 60-36.5 93T618-195q-65 0-106-42l-31 18 77 194-19 3q-32 6-80 17-141 35-234 137.5T112 379h79q22-137 131-235Q441 37 641 37q155 0 262 54 87 43 138.5 113t51.5 163q0 119-81 199-51 51-193 92-65 18-209 49-156 32-207 47-119 34-184 88-47 38-78 97-31 57-31 157 0 78 32 144.5t85.5 112.5 122.5 78.5 143 47.5 148 15q96 0 189-25.5t162-76.5q75-56 120.5-134.5T1171 1086h-79q-22 137-131 235-121 107-320 107-154 0-261-54-87-43-138.5-113T190 1098q0-119 81-199 51-51 193-92 65-18 209-49 156-32 207-47 119-34 184-88 47-38 78-97 31-57 31-157 0-78-32-145t-85.5-112.5-123-78.5T789-15 641-30q-5 0-14 .5t-13 .5l-12 2-63-156 39 20q21 11 59 11 76 0 124.5-47T810-321q0-81-58.5-129.5T608-499z"/><glyph glyph-name="scedilla" unicode="ş" horiz-adv-x="957" vert-adv-y="2275" d="M445-499q-79 0-129 40l26 42q47-33 107-33 59 0 98.5 34t39.5 95q0 60-36.5 93T455-195q-67 0-106-42l-32 18L402-8l-20 4Q271 18 198 94.5T112 282h66q17-113 101-175t201-62q82 0 162 30t113 96q26 50 26 96 0 120-114 174-42 21-111 36-40 9-124 25-60 12-99.5 22.5t-86 31-73 47.5-45 71T110 775q0 113 100 198 101 86 267 86 231 0 329-173 32-59 39-124h-66q-17 113-101 175t-201 62q-82 0-162-30t-113-96q-26-50-26-96 0-120 114-174 40-18 111-36 21-5 63-13t61-12q50-10 84-18.5t74.5-23 67-33.5 50-46 35-65 11.5-86q0-114-100-199T480-14q-16 0-23 1l-13 1-68-171 39 20q21 11 59 11 75 0 123.5-47T646-321q0-81-58.5-129.5T445-499z"/><glyph glyph-name="Scaron" unicode="Š" horiz-adv-x="1283" vert-adv-y="2275" d="M889 1969v-69l-247-129-247 129v69l246-127zM641-30q-95 0-188 26T291 73Q139 186 112 379h79q22-139 131-235Q441 37 641 37q155 0 262 54 87 43 138.5 113t51.5 163q0 118-81 199-51 51-193 92-65 18-209 49-159 33-207 47-119 34-184 88-44 36-78 97-31 57-31 157 0 78 32 144.5t85.5 112.5 122.5 78.5 143 47.5 148 15q96 0 189-25.5t162-76.5q75-56 120.5-134.5T1171 1086h-79q-22 137-131 235-121 107-320 107-154 0-261-54-87-43-138.5-113T190 1098q0-118 81-199 51-51 193-92 65-18 209-49 159-33 207-47 119-34 184-88 44-36 78-97 31-57 31-157 0-78-32-145t-85.5-112.5-123-78.5T789-15 641-30z"/><glyph glyph-name="scaron" unicode="š" horiz-adv-x="957" vert-adv-y="2275" d="M726 1558v-68l-248-129-247 129v68l247-127zM480-14q-232 0-329 173-31 57-39 123h66q17-113 101-175t201-62q83 0 162 30t113 96q26 50 26 96 0 120-114 174-42 21-111 36-40 9-124 25-60 12-99.5 22.5t-86 31-73 47.5-45 71T110 775q0 113 100 198 101 86 267 86 231 0 329-173 32-59 39-124h-66q-17 113-101 175t-201 62q-51 0-101-10.5t-100.5-40T202 873q-26-50-26-96 0-120 114-174 40-18 111-36 21-5 63-13t61-12q50-10 84-18.5t74.5-23 67-33.5 50-46 35-65 11.5-86q0-114-100-199T480-14z"/><glyph glyph-name="Tcaron" unicode="Ť" horiz-adv-x="1288" vert-adv-y="2275" d="M891 1969v-69l-247-129-247 129v69l247-127zm-213-566V0h-69v1403H110v66h1068v-66H678z"/><glyph glyph-name="tcaron" unicode="ť" horiz-adv-x="1155" vert-adv-y="2275" d="M513-2q-96 0-138 55t-42 158v790H110v58h223v461h66v-461h230v-58H399V229q0-85 29-129.5T542 55q30 0 88 2V1zm538 1471-112-326h-55l79 326h88z"/><glyph glyph-name="Utilde" unicode="Ũ" horiz-adv-x="1345" vert-adv-y="2275" d="M805 1838q-46 0-134 41-50 24-66 30-39 14-68 14-87 0-108-78h-62q14 66 59.5 102.5T541 1984q51 0 135-40 44-22 65-30 39-14 68-14 86 0 108 78h61q-14-66-59-103t-114-37zM672-32q-142 0-250.5 47t-176 133T144 349.5 110 606v863h70V586q0-117 30.5-216.5t90-176 155-120T672 30t216 43.5T1043 193t91 176 31 217v883h70V606q0-142-34-257t-102-201T922.5 15 672-32z"/><glyph glyph-name="utilde" unicode="ũ" vert-adv-y="2275" d="M657 1428q-52 0-134 41-65 28-67 29-37 15-68 15-87 0-107-79h-62q14 66 59 103t114 37q49 0 135-41 44-21 66-29 37-15 68-15 85 0 107 79h62q-14-66-59-103t-114-37zM524 0Q313 0 211 108 110 216 110 388v671h65V417q0-362 349-362 181 0 267 96 38 43 60 106.5T873 381v678h66V0h-66v160l-30-46q-39-59-131.5-86.5T524 0z"/><glyph glyph-name="Umacron" unicode="Ū" horiz-adv-x="1345" vert-adv-y="2275" d="M974 1835v-60H371v60h603zM672-32q-142 0-250.5 47t-176 133T144 349.5 110 606v863h70V586q0-117 30.5-216.5t90-176 155-120T672 30t216 43.5T1043 193t91 176 31 217v883h70V606q0-142-34-257t-102-201T922.5 15 672-32z"/><glyph glyph-name="umacron" unicode="ū" vert-adv-y="2275" d="M826 1424v-59H223v59h603zM524 0Q313 0 211 108 110 216 110 388v671h65V417q0-362 349-362 181 0 267 96 38 43 60 106.5T873 381v678h66V0h-66v160l-30-46q-39-59-131.5-86.5T524 0z"/><glyph glyph-name="Ubreve" unicode="Ŭ" horiz-adv-x="1345" vert-adv-y="2275" d="M673 1765q-109 0-177.5 58T421 1984h60q6-79 58.5-122t133.5-43 134 43 58 122h59q-5-104-73.5-161.5T673 1765zM672-32q-142 0-250.5 47t-176 133T144 349.5 110 606v863h70V586q0-117 30.5-216.5t90-176 155-120T672 30t216 43.5T1043 193t91 176 31 217v883h70V606q0-142-34-257t-102-201T922.5 15 672-32z"/><glyph glyph-name="ubreve" unicode="ŭ" vert-adv-y="2275" d="M524 1355q-109 0-177.5 57.5T273 1574h60q5-79 57.5-122t133.5-43 134.5 43 58.5 122h59q-5-104-73.5-161.5T524 1355zM524 0Q313 0 211 108 110 216 110 388v671h65V417q0-362 349-362 181 0 267 96 38 43 60 106.5T873 381v678h66V0h-66v160l-30-46q-39-59-131.5-86.5T524 0z"/><glyph glyph-name="Uring" unicode="Ů" horiz-adv-x="1345" vert-adv-y="2275" d="M674 1740q-89 0-149 59t-60 148q0 41 20 89 23 54 75.5 86t113.5 32q44 0 91-21 52-22 83-74t31-112q0-43-19-91-20-53-73-84.5T674 1740zm0 49q67 0 109 45.5t42 112.5-42 112.5-109 45.5q-68 0-109.5-45T523 1947t41.5-113 109.5-45zM672-32q-142 0-250.5 47t-176 133T144 349.5 110 606v863h70V586q0-117 30.5-216.5t90-176 155-120T672 30t216 43.5T1043 193t91 176 31 217v883h70V606q0-142-34-257t-102-201T922.5 15 672-32z"/><glyph glyph-name="uring" unicode="ů" vert-adv-y="2275" d="M526 1329q-88 0-148 59.5T318 1537q0 41 20 89 23 54 75 86t113 32q41 0 92-21 51-22 82.5-74.5T732 1537q0-41-19-91-20-53-73.5-85T526 1329zm0 49q68 0 109.5 45.5T677 1537q0 67-42 112.5T526 1695q-68 0-109-45t-41-113 41-113.5 109-45.5zM524 0Q313 0 211 108 110 216 110 388v671h65V417q0-362 349-362 181 0 267 96 38 43 60 106.5T873 381v678h66V0h-66v160l-30-46q-39-59-131.5-86.5T524 0z"/><glyph glyph-name="Uhungarumlaut" unicode="Ű" horiz-adv-x="1345" vert-adv-y="2275" d="m633 2104-160-327h-53l127 327h86zm290 0-161-327h-53l127 327h87zM672-32q-142 0-250.5 47t-176 133T144 349.5 110 606v863h70V586q0-117 30.5-216.5t90-176 155-120T672 30t216 43.5T1043 193t91 176 31 217v883h70V606q0-142-34-257t-102-201T922.5 15 672-32z"/><glyph glyph-name="uhungarumlaut" unicode="ű" vert-adv-y="2275" d="m486 1693-161-326h-53l127 326h87zm289 0-160-326h-53l127 326h86zM524 0Q313 0 211 108 110 216 110 388v671h65V417q0-362 349-362 181 0 267 96 38 43 60 106.5T873 381v678h66V0h-66v160l-30-46q-39-59-131.5-86.5T524 0z"/><glyph glyph-name="Wcircumflex" unicode="Ŵ" horiz-adv-x="2245" vert-adv-y="2275" d="m1123 1955 248-129v-69l-248 127-247-127v69zm1012-486L1660-2h-93l-444 1415L677 0h-94L110 1469h80L630 55l446 1414h97L1617 53l442 1416h76z"/><glyph glyph-name="wcircumflex" unicode="ŵ" horiz-adv-x="1792" vert-adv-y="2275" d="m896 1544 248-129v-68l-248 127-247-127v68zm1-569L558-5h-77L110 1066h67L518 65l341 1001h75L1275 66l340 1000h67L1311-5h-76z"/><glyph glyph-name="Ycircumflex" unicode="Ŷ" horiz-adv-x="1470" vert-adv-y="2275" d="m734 1955 248-129v-69l-248 127-247-127v69zm33-1222V0h-69v739l-588 730h92l534-672 536 672h88z"/><glyph glyph-name="ycircumflex" unicode="ŷ" horiz-adv-x="1202" vert-adv-y="2275" d="m601 1544 248-129v-68l-248 127-247-127v68zm491-483L453-463h-70L568-17 110 1061h74L600 62l415 999h77z"/><glyph glyph-name="Ydieresis" unicode="Ÿ" horiz-adv-x="1470" vert-adv-y="2275" d="M592 1763q-29 0-47 18t-18 46q0 29 18.5 47.5T592 1893t46.5-19 18.5-47-18.5-46-46.5-18zm286 0q-29 0-47.5 17.5T812 1827t18.5 47.5T878 1893q27 0 46-19t19-47-18.5-46-46.5-18zM767 733V0h-69v739l-588 730h92l534-672 536 672h88z"/><glyph glyph-name="Zacute" unicode="Ź" horiz-adv-x="1332" vert-adv-y="2275" d="m768 2064-146-326h-59l129 326h76zM1222 66V0H110v64l1022 1339H119v66h1094v-64L192 66h1030z"/><glyph glyph-name="zacute" unicode="ź" horiz-adv-x="1043" vert-adv-y="2275" d="m624 1653-147-326h-58l129 326h76zM933 57V0H112v58l727 943H110v58h820v-54L202 57h731z"/><glyph glyph-name="Zdotaccent" unicode="Ż" horiz-adv-x="1332" vert-adv-y="2275" d="M667 1832q-29 0-47 18t-18 46q0 29 18.5 47.5T667 1962q27 0 46-19t19-47-18.5-46-46.5-18zM1222 66V0H110v64l1022 1339H119v66h1094v-64L192 66h1030z"/><glyph glyph-name="zdotaccent" unicode="ż" horiz-adv-x="1043" vert-adv-y="2275" d="M521 1422q-29 0-47 18t-18 46 18.5 46.5T521 1551t47-18.5 19-46.5-19-46-47-18zM933 57V0H112v58l727 943H110v58h820v-54L202 57h731z"/><glyph glyph-name="Zcaron" unicode="Ž" horiz-adv-x="1332" vert-adv-y="2275" d="M914 1969v-69l-248-129-247 129v69l247-127zM1222 66V0H110v64l1022 1339H119v66h1094v-64L192 66h1030z"/><glyph glyph-name="zcaron" unicode="ž" horiz-adv-x="1043" vert-adv-y="2275" d="M769 1558v-68l-248-129-246 129v68l246-127zM933 57V0H112v58l727 943H110v58h820v-54L202 57h731z"/><glyph glyph-name="circumflex" unicode="ˆ" horiz-adv-x="790" vert-adv-y="2275" d="m395 1544 248-129v-68l-248 127-247-127v68z"/><glyph glyph-name="caron" unicode="ˇ" horiz-adv-x="790" vert-adv-y="2275" d="M643 1558v-68l-248-129-247 129v68l247-127z"/><glyph glyph-name="breve" unicode="˘" horiz-adv-x="731" vert-adv-y="2275" d="M366 1355q-109 0-178 57.5T114 1574h60q5-79 58-122t134-43q80 0 133.5 43t58.5 122h59q-5-104-73.5-161.5T366 1355z"/><glyph glyph-name="dotaccent" unicode="˙" horiz-adv-x="462" vert-adv-y="2275" d="M231 1422q-29 0-47 18t-18 46 18 46.5 47 18.5q28 0 46.5-18.5T296 1486t-18.5-46-46.5-18z"/><glyph glyph-name="ring" unicode="˚" horiz-adv-x="596" vert-adv-y="2275" d="M300 1329q-89 0-149 59.5T91 1537q0 41 20 89 23 54 75.5 86t113.5 32q40 0 91-21 51-22 82.5-74.5T505 1537q0-41-19-91-20-53-73-85t-113-32zm0 49q67 0 108.5 45.5T450 1537q0 67-41.5 112.5T300 1695q-68 0-109.5-45T149 1537t41.5-113.5T300 1378z"/><glyph glyph-name="ogonek" unicode="˛" horiz-adv-x="544" vert-adv-y="2275" d="M280-426q-82 0-129 53.5T104-233q0 92 54 162.5T300 39l26-45q-69-31-114-90.5T167-231q0-59 34-100t94-41q66 0 115 52l30-38q-24-32-69.5-50T280-426z"/><glyph glyph-name="tilde" unicode="˜" horiz-adv-x="835" vert-adv-y="2275" d="M550 1428q-52 0-134 41-65 28-67 29-37 15-68 15-87 0-107-79h-62q14 66 59 103t114 37q49 0 135-41 44-21 66-29 37-15 68-15 85 0 107 79h62q-14-66-59-103t-114-37z"/><glyph glyph-name="hungarumlaut" unicode="˝" horiz-adv-x="777" vert-adv-y="2275" d="m350 1693-160-326h-53l127 326h86zm290 0-160-326h-53l127 326h86z"/><glyph glyph-name="Wgrave" unicode="Ẁ" horiz-adv-x="2245" vert-adv-y="2275" d="m1097 2064 130-326h-59l-147 326h76zm1038-595L1660-2h-93l-444 1415L677 0h-94L110 1469h80L630 55l446 1414h97L1617 53l442 1416h76z"/><glyph glyph-name="wgrave" unicode="ẁ" horiz-adv-x="1792" vert-adv-y="2275" d="m871 1653 129-326h-59l-146 326h76zm26-678L558-5h-77L110 1066h67L518 65l341 1001h75L1275 66l340 1000h67L1311-5h-76z"/><glyph glyph-name="Wacute" unicode="Ẃ" horiz-adv-x="2245" vert-adv-y="2275" d="m1225 2064-146-326h-59l129 326h76zm910-595L1660-2h-93l-444 1415L677 0h-94L110 1469h80L630 55l446 1414h97L1617 53l442 1416h76z"/><glyph glyph-name="wacute" unicode="ẃ" horiz-adv-x="1792" vert-adv-y="2275" d="m999 1653-147-326h-59l129 326h77zM897 975 558-5h-77L110 1066h67L518 65l341 1001h75L1275 66l340 1000h67L1311-5h-76z"/><glyph glyph-name="Wdieresis" unicode="Ẅ" horiz-adv-x="2245" vert-adv-y="2275" d="M980 1763q-29 0-47 18t-18 46 18.5 47 46.5 19 47-19 19-47-18.5-46-47.5-18zm286 0q-29 0-47 17.5t-18 46.5 18 47.5 47 18.5q28 0 46.5-19t18.5-47-18.5-46-46.5-18zm869-294L1660-2h-93l-444 1415L677 0h-94L110 1469h80L630 55l446 1414h97L1617 53l442 1416h76z"/><glyph glyph-name="wdieresis" unicode="ẅ" horiz-adv-x="1792" vert-adv-y="2275" d="M754 1353q-29 0-47 17.5t-18 45.5q0 29 18 47.5t47 18.5q28 0 46.5-19t18.5-47q0-27-18.5-45t-46.5-18zm285 0q-29 0-47 17.5t-18 45.5q0 29 18 47.5t47 18.5q28 0 47-19t19-47q0-27-19-45t-47-18zM897 975 558-5h-77L110 1066h67L518 65l341 1001h75L1275 66l340 1000h67L1311-5h-76z"/><glyph glyph-name="endash" unicode="–" horiz-adv-x="1016" vert-adv-y="2275" d="M1016 546v-59H0v59h1016z"/><glyph glyph-name="emdash" unicode="—" horiz-adv-x="2064" vert-adv-y="2275" d="M2064 546v-59H0v59h2064z"/><glyph glyph-name="quoteleft" unicode="‘" horiz-adv-x="376" vert-adv-y="2275" d="m272 1469-81-326h-87l112 326h56z"/><glyph glyph-name="quoteright" unicode="’" horiz-adv-x="376" vert-adv-y="2275" d="m272 1469-113-326h-55l80 326h88z"/><glyph glyph-name="quotesinglbase" unicode="‚" horiz-adv-x="376" vert-adv-y="2275" d="M272 119 159-208h-55l80 327h88z"/><glyph glyph-name="quotedblleft" unicode="“" horiz-adv-x="659" vert-adv-y="2275" d="m272 1469-81-326h-87l112 326h56zm282 0-79-326h-88l112 326h55z"/><glyph glyph-name="quotedblright" unicode="”" horiz-adv-x="659" vert-adv-y="2275" d="m272 1469-113-326h-55l80 326h88zm282 0-111-326h-56l80 326h87z"/><glyph glyph-name="quotedblbase" unicode="„" horiz-adv-x="659" vert-adv-y="2275" d="M272 121 159-206h-55l80 327h88zm282 0L443-206h-56l80 327h87z"/><glyph glyph-name="dagger" unicode="†" horiz-adv-x="1057" vert-adv-y="2275" d="M561 974V-169h-65V974H114v59h382v436h65v-436h382v-59H561z"/><glyph glyph-name="daggerdbl" unicode="‡" horiz-adv-x="1057" vert-adv-y="2275" d="M561 267v-436h-65v436H114v59h382v648H114v59h382v436h65v-436h382v-59H561V326h382v-59H561z"/><glyph glyph-name="bullet" unicode="•" horiz-adv-x="1047" vert-adv-y="2275" d="M522 444q-121 0-206 86t-85 209 84.5 209.5T522 1035t208.5-86.5T817 739q0-122-86.5-208.5T522 444z"/><glyph glyph-name="ellipsis" unicode="…" horiz-adv-x="1235" vert-adv-y="2275" d="M194-17q-30 0-49.5 19T125 51q0 31 19 50.5t50 19.5q30 0 50-20t20-50q0-29-20.5-48.5T194-17zm424 0q-30 0-50 19t-20 49q0 31 19 50.5t51 19.5q30 0 49.5-20T687 51q0-28-20-48t-49-20zm423 0q-30 0-49.5 19T972 51q0 31 19 50.5t50 19.5q30 0 49.5-19.5T1110 51q0-29-20-48.5T1041-17z"/><glyph glyph-name="guilsinglleft" unicode="‹" horiz-adv-x="589" vert-adv-y="2275" d="m222 527 221-427h-76L145 527l222 428h76z"/><glyph glyph-name="guilsinglright" unicode="›" horiz-adv-x="591" vert-adv-y="2275" d="M443 527 222 100h-77l222 427-222 428h77z"/><glyph glyph-name="fraction" unicode="⁄" horiz-adv-x="654" vert-adv-y="2275" d="M723 1469-3 0h-66l726 1469h66z"/><glyph glyph-name="Euro" unicode="€" horiz-adv-x="1186" vert-adv-y="2275" d="M853-32q-262 0-413.5 151T248 540l-2 14H87v60h152l-1 17q0 18-1 52.5t-1 51.5q0 21 2 58.5t2 48.5l1 18H87v59h161l2 14q40 268 191.5 418T853 1501q163 0 271-59v-67q-123 64-271 64-454 0-530-501l-3-19h500v-59H315l-1-16q0-12-2-50t-2-59q0-18 1-52.5t1-51.5l1-17h507v-60H320l3-19Q395 30 853 30q148 0 271 64V27q-111-59-271-59z"/><glyph glyph-name="trademark" unicode="™" horiz-adv-x="1803" vert-adv-y="2275" d="M425 1414V635h-56v779H91v55h611v-55H425zm489-37V635h-61v834h59l324-419 325 419h59V635h-61v742l-326-420q-2 6-81.5 111T993 1275z"/><glyph glyph-name="arrowleft" unicode="←" horiz-adv-x="1182" vert-adv-y="2275" d="M145 487 498 0h-77L42 517l379 516h77L145 546h996v-59H145z"/><glyph glyph-name="arrowright" unicode="→" horiz-adv-x="1182" vert-adv-y="2275" d="M1141 517 761 0h-76l352 487H42v59h995l-352 487h76z"/><glyph glyph-name="minus" unicode="−" horiz-adv-x="1186" vert-adv-y="2275" d="M1116 548v-65H71v65h1045z"/><glyph glyph-name="approxequal" unicode="≈" horiz-adv-x="1174" vert-adv-y="2275" d="M803 601q-78 0-216 48-84 28-108 34-64 16-110 16-55 0-109-25t-90-68l-54 43q19 26 55 57 76 64 200 64 76 0 217-47 93-30 108-34 64-16 109-16 56 0 109.5 24.5T1003 766l55-44q-16-23-55-56-81-65-200-65zm0-338q-83 0-218 47-148 50-216 50-56 0-109-24.5T171 268l-55 43q21 28 55 57 78 64 200 64 73 0 214-47 63-23 108-34 66-16 112-16 56 0 109.5 24.5T1003 427l55-43q-21-30-55-57-79-64-200-64z"/><glyph glyph-name="notequal" unicode="≠" horiz-adv-x="1186" vert-adv-y="2275" d="M504 271 367 0h-72l137 271H71v66h393l182 357H71v66h607l138 273h73L750 760h366v-66H718L536 337h580v-66H504z"/><glyph glyph-name="lessequal" unicode="≤" horiz-adv-x="1185" vert-adv-y="2275" d="m178 714 895-367v-72L112 678v70l961 404v-72zm891-616V33H115v65h954z"/><glyph glyph-name="greaterequal" unicode="≥" horiz-adv-x="1185" vert-adv-y="2275" d="M1073 748v-70L112 275v72l895 367-895 366v72zm-3-650V33H116v65h954z"/><glyph glyph-name="uniF8FF" unicode="" horiz-adv-x="1008" vert-adv-y="2275" d="M978 1142V126H30v1016h948zM172 366h109v189h373v98H281v266h373v97H171V370zm553 101H354V366h483v650H725V834H354V730h371V467zM563 241q8 0 14 4 2 0 5 1h2q7 0 7 5v25q-5 0-7 4l-3 3-7 1h-8l-5 4-4 1q-1 2-2 3.5t-1 2.5q0 7 7 7h5q5-3 6-4 4-3 7-3 1 0 3-1l2-1 7 15q0 1-2 1.5t-5.5 1.5-6.5 2q-12 4-14 4-4 0-14-4-5-3-8-3l-4-6q-3-3-3-11 0-2 .5-4t.5-3q0-2 2-3l2.5-2.5 1.5-2.5 5-2q1 0 2.5-.5t2.5-.5q4 0 8-4h4l3-2 5-3 1-3q0-5-2-5-4-2-7-2-2 0-14 5-3 0-14 7l-4-15q6-8 15-8 1 0 3.5-1t4.5-1q3-2 9-2zm-293 0q18 0 28 10 9 9 12 27 0 14-9 20 0 4-3 6-1 1-3 3.5t-4 2.5q-5 5-21 5-12 0-19-5-7-2-15-12-5-12-5-20 0-11 5-18 8-14 13-15 7-4 21-4zm461 0q13 0 17 4 7 2 14 9l-12 12q-3-5-10-5-2-3-9-3-6 0-9 3l-2 2q-1 0-5 6-2 0-2 11 0 6 2 9 0 1 3 3.5t4 3.5q3 4 9 4 7 0 9-4 7-1 10-7l10 13q0 1-1 2t-2 2.5-2 3.5l-7 1-8 4h-9q-18 0-24-11-12-5-12-26 0-12 3-18 9-13 15-15 5-4 18-4zm-503 72h-56v-70h21v26h31v14h-31v17h35v13zm107 0h-16v-70h18v41l31-41h19v70h-19v-42zm59-13h23v-57h17v57h21v13h-61v-13zm105 13h-20l-32-70h20l6 11h29l5-11h22zm97-13h20v-57h20v57h22v13h-62v-13zm87 13h-18v-70h18v70zm129 0h-20l-32-70h20l6 11h33l2-11h22zm-542-57q-5 0-14 7-5 8-5 15 0 6 2 11l3 4 5 3q2 4 9 4 5 0 11-4 4-1 7-7l2-5v-11q0-1-1-3l-1-2q-6-7-7-7-7-5-11-5zm219 39 8-26h-20zm312 0 9-26h-20zM59 50l-4-20h-5l-4 1-11 44q2 2 4 2h7l4-30q2 0 2 3 0 5 3 10 1 3 2 5.5t1.5 4T59 72v5h9l6-15 3-15q2 2 2 4l2 11 3 13q0 2 4 2l6-2q-6-9-6-18 0-1-4-13l-2-11v-3H72v3l-2 5-3 12-3 14zm70-3-4-17h-8q0 1-3 1v7l-7 31-3 6q3 2 5 2h5v-7q3-3 3-8l4-15 8 30h8l2-2 5-15 1-13 9 28q0 2 4 2l5-2v-5l-2-8q-1-2-2-5t-1-4l-6-23h-5l-3 1-7 16v8q0 1-3 3-4-2-4-3 0-5-1-8zm73 17-8-33-5-1-3 1-2 7q0 7-5 17l-1 15-2 7h8l3-15 4-15 3 4 4 26h11l4-15q1-15 7-15v15l2 15h6l5-2-2-5q0-6-2-8 0-2-.5-5t-.5-4l-7-22-1-1h-7l-6 17-3 13zm82-14V31h-7v44l1 2h28v-8h-22V57h17v-7h-17zm59-20q-14 0-17 12-3 9-3 11 0 9 3 12 0 5 6 5l5 7h8q13 0 20-15 3-10 0-15-3-8-7-12-5-5-15-5zm51 30V30h-9v47h9l18-30v30h6V31l-1-1h-5zm66 9V30h-9v39h-13v8h36v-8h-14zm33-38-6-1h-3q0 1-2 1l2 6 5 12 6 15q1 1 2.5 4.5T501 75q0 2 1 2h5l19-46q-2 0-2-1h-2l-7 1-2 11h-18zm66-1q-3 0-6 .5t-4 .5q-2 1-4 4t-3 3l-1 4v5h8q7-9 10-9 2 0 5 2 2 2 2 4v3q-1 2-9 4-11 0-11 4-6 7-4 12 5 8 11 10h8q9 0 10-7 3 0 3-6v-2h-8v2q0 6-7 6h-2q-6-4-6-6l10-4q2-1 6.5-3.5T574 53q0-1 1-3t1-3q0-8-4-10-1-6-6-6-2-1-7-1zm55 39V30h-8v39h-14v8h36v-8h-14zm40 8V30h-7v47h7zm42-47q-12 0-21 17-2 0-2 6l2 9q1 8 14 15h6q9 0 12-7 3 0 3-3l1-3-4-2h-2l-3 2q-4 6-7 6l-10-5q-3-4-3-8l1-7q0-3 2-5 0-7 8-7 5 0 9 9h5q4 0 4-2l-1-3q-5-12-14-12zm41 1-6-1h-1l-2 1 2 6 3 12q4 8 5 15l7 11q0 2 3 2h7l17-46q-2 0-2-1h-4l-4 1-5 11h-17zm99-1q-4 0-12 3-1 2-5 9-7 11 0 25 3 3 5 3 1 1 2 2.5t2 2.5 1 2h8q6 0 8-2 4 0 4-5 5 0 5-3v-3q-2 0-5-2h-4v2q-2 5-8 5-8 0-8-5-3-3-3-11 0-6 3-11 0-4 8-4 6 0 8 9h9v-7l-4-3q-4-7-14-7zm58 0q-12 0-16 7-7 9-7 16 0 1 5 14 9 9 11 10 4 0 11-2.5t8-2.5q8-2 8-17 0-12-5-18-3-7-15-7zm48 1-4-1h-4v47h14l3-15 2-11v-4l7 13q2 9 2 15v2h16V30h-10v35l-6-15V38l-2-7v-1h-7l-2 1-3 16-6 17V31zm-597 7q12 0 12 9v13q0 2-2.5 4t-2.5 3q-6 3-7 3l-10-5q0-3-2-3v-9q0-1 4-11 4-4 8-4zm549 0q4 0 5 2 5 2 5 13 0 12-5 14l-1 1q-1 1-2 1 0 1-2 1-9 0-9-6 0-1-1-5t-1-6q0-6 2-11 0-4 9-4zM504 64l-3-2-2-12h10q-2 1-2 7l-1 5zm246 0-3-2-3-12h11l-3 7-2 5v2zM255 40v-9h-9v9h9zm542 0v-9h-9v9h9z"/><glyph glyph-name="_FSHallmark" horiz-adv-x="1414" vert-adv-y="2275" d="M1354 1133V981H63v152h1291zm-279-875q-62 0-105 14-79 21-130 80t-51 139l150-3q0-6 9-26 3-19 22-38.5t38-25.5q26-16 74-16 54 0 84 18 27 16 27 42 0 46-122 71-100 28-188 70-78 38-78 127 0 70 44.5 112T970 890q93 12 105 12 62 0 145-30 55-20 88-69.5t33-108.5h-154q0 34-41 63-4 1-16.5 7.5T1109 772q-5 0-18 3.5t-19 3.5q-36 0-72-22-30-17-30-47 0-50 29-63 3-1 16.5-7t25-9.5 23.5-5.5l58-16 47-11q6-1 22-5.5t24-4.5q29-6 36-11l32-15q31-20 50-42 18-39 19-70 2-29-16-76-62-116-261-116zM232 466V258H63v643h543V756H232V609h312V466H232zm437-205q-28 0-51 25-27 23-27 51 0 29 24 53 21 21 54 21 38 0 62-23 26-23 26-51 0-30-26-56-29-20-62-20zm683-82V27H60v152h1292z"/><glyph glyph-name="_Fontastica" horiz-adv-x="1085" vert-adv-y="2275" d="M220 456V187H65l-5 6v934h700V989H220V601h540V456H220zm805 671V187H325v146h540v382H325v149h540v263h160zM212 33q-13 0-29 7-11 3-19.5 17.5T155 86q0 22 17.5 37t39.5 15q26 0 46-28 8-8 8-24 0-23-15.5-38T212 33zm411 0q-27 0-48 16l11 20q17-15 37-15 12 0 12 10l-1 2q-2 1-2 3l-5 4q-2 0-11 3-3 1-9.5 2t-9.5 3q-15 8-15 27 0 30 41 30 22 0 41-11l-11-22q-13 12-40 12l-1-1-2-7q0-1 1-2t1-2l4-6q3 0 6.5-1t4.5-1q12 0 24.5-10T664 65q0-15-12.5-23.5T623 33zm236 0q-16 0-27 7-12 5-20 18.5T804 86q0 10 9 25.5t19 19.5q14 7 27 7 7 0 23-4 9-5 18-14l-16-18q-3 3-11.5 8.5T860 116q-14 0-23-14-4-5-4-16 0-20 12-25 8-6 15-6 4 0 13.5 5t10.5 8l16-15q-12-20-41-20zM101 72V35H75v101h75v-20h-49V92h47V72h-47zm203 23V35h-26v101h25l45-61v61h26V35h-24zm138 19V35h-27v79h-30v22h85v-22h-28zm52-60-6-19h-27l42 101h28l42-101h-28l-6 19h-45zm230 60V35h-26v79h-30v22h87v-22h-31zm68 22V35h-26v101h26zm143-82-9-19h-26l44 101h28l42-101h-29l-8 19h-42zm-723 0q11 0 19.5 9.5T240 86q0 10-9 20t-19 10q-6 0-16-6-13-7-13-24 0-14 8-23t21-9zm319 19-15 36-14-36h29zm438 0-14 36-12-36h26z"/><glyph glyph-name="_www.fontastica.com" horiz-adv-x="1953" vert-adv-y="2275" d="M66 353v-60H32l-2 1v209h158v-31H66v-87h122v-32H66zm181 150V293H89v32h122v86H89v33h122v59h36zm1003-193q-46 0-81 28l18 36q11-10 30.5-18.5t32.5-8.5q4 0 16 4 7 3 7 11t-5 10q-9 6-29 12-28 8-31 10-11 5-20 15-7 10-7 28 0 27 20.5 40.5T1250 491q39 0 70-20l-17-36q-34 18-57 18-18 0-18-12t33-22q24-5 31-10 16-9 20-16 8-11 8-29 0-27-20.5-40.5T1250 310zm-707-1q-39 0-66.5 26T449 400t27 64.5 67 25.5 67-25.5 27-64.5q0-40-26.5-65.5T543 309zm1113 0q-38 0-64.5 26.5T1565 400q0 39 27 64.5t66 25.5q44 0 70-30l-26-32q-16 23-43 23-21 0-34.5-14.5T1611 401q0-16 6-26 16-25 42-25 23 0 43 20l27-28q-33-33-73-33zM354 375v-62h-45v174h130v-36h-85v-39h78v-37h-78zm349 42V313h-43v174h40l80-105-1 105h43V313h-40zm235 33V313h-45v137h-52v37h150v-37h-53zm93-107-12-30h-47l75 174h47l73-174h-48l-12 30h-76zm395 107V313h-46v137h-52v37h150v-37h-52zm116 37V313h-45v174h45zm245-144-12-30h-47l75 174h47l73-174h-49l-11 30h-76zm-1243 5q20 0 33.5 16t13.5 36q0 7-7 26-9 25-40 25-21 0-34.5-14.5T496 400q0-21 13.5-36.5T544 348zm549 30-23 63-25-63h48zm756 0-24 63-24-63h48z"/></font>
</defs>
</svg>
